<?xml version="1.0" encoding="UTF-8" standalone="no"?>
<svg width="30px" height="42px" viewBox="0 0 30 42" version="1.1" xmlns="http://www.w3.org/2000/svg" xmlns:xlink="http://www.w3.org/1999/xlink" xmlns:sketch="http://www.bohemiancoding.com/sketch/ns">
    <!-- Generator: Sketch 3.2.2 (9983) - http://www.bohemiancoding.com/sketch -->
    <title>ico.captr.ticket</title>
    <desc>Created with Sketch.</desc>
    <defs></defs>
    <g id="cptr---addon" stroke="none" stroke-width="1" fill="none" fill-rule="evenodd" sketch:type="MSPage">
        <g sketch:type="MSArtboardGroup" transform="translate(-1051.000000, -173.000000)" id="captr.flyout" fill="#9DA5AD">
            <g sketch:type="MSLayerGroup" transform="translate(928.000000, 114.000000)">
                <g id="btn.captr.selection-2" transform="translate(114.000000, 24.000000)" sketch:type="MSShapeGroup">
                    <path d="M9.91,35 C9.965,35.326 10,35.658 10,36 C10,36.342 9.965,36.674 9.91,37 L38.09,37 C38.035,36.674 38,36.342 38,36 C38,35.658 38.035,35.326 38.09,35 L9.91,35 Z M10.09,61 C10.09,61.342 10.055,61.674 10,62 L38.18,62 C38.125,61.674 38.09,61.342 38.09,61 C38.09,60.658 38.125,60.326 38.18,60 L10,60 C10.055,60.326 10.09,60.658 10.09,61 Z M19.4393187,76 C19.4393187,76.342 19.427917,76.674 19.41,77 L28.59,77 C28.572083,76.674 28.5606813,76.342 28.5606813,76 C28.5606813,75.658 28.572083,75.326 28.59,75 L19.41,75 C19.427917,75.326 19.4393187,75.658 19.4393187,76 Z M10.0635877,66 C10.0635877,66.342 10.0388591,66.674 10,67 L29.91,67 C29.8711409,66.674 29.8464123,66.342 29.8464123,66 C29.8464123,65.658 29.8711409,65.326 29.91,65 L10,65 C10.0388591,65.326 10.0635877,65.658 10.0635877,66 Z M9.91,55 C9.965,55.326 10,55.658 10,56 C10,56.342 9.965,56.674 9.91,57 L38.09,57 C38.035,56.674 38,56.342 38,56 C38,55.658 38.035,55.326 38.09,55 L9.91,55 Z M10.0635877,41 C10.0635877,41.342 10.0388591,41.674 10,42 L29.91,42 C29.8711409,41.674 29.8464123,41.342 29.8464123,41 C29.8464123,40.658 29.8711409,40.326 29.91,40 L10,40 C10.0388591,40.326 10.0635877,40.658 10.0635877,41 Z M9.91,45 C9.965,45.326 10,45.658 10,46 C10,46.342 9.965,46.674 9.91,47 L38.09,47 C38.035,46.674 38,46.342 38,46 C38,45.658 38.035,45.326 38.09,45 L9.91,45 Z M9.91,50 C9.95684173,50.326 9.98665011,50.658 9.98665011,51 C9.98665011,51.342 9.95684173,51.674 9.91,52 L33.91,52 C33.8631583,51.674 33.8333499,51.342 33.8333499,51 C33.8333499,50.658 33.8631583,50.326 33.91,50 L9.91,50 Z" id="ico.captr.ticket"></path>
                </g>
            </g>
        </g>
    </g>
</svg>