<?xml version="1.0" encoding="UTF-8" standalone="no"?>
<svg width="16px" height="16px" viewBox="0 0 16 16" version="1.1" xmlns="http://www.w3.org/2000/svg" xmlns:xlink="http://www.w3.org/1999/xlink" xmlns:sketch="http://www.bohemiancoding.com/sketch/ns">
    <!-- Generator: Sketch 3.2.2 (9983) - http://www.bohemiancoding.com/sketch -->
    <title>Fill 1</title>
    <desc>Created with Sketch.</desc>
    <defs></defs>
    <g id="cptr---addon" stroke="none" stroke-width="1" fill="none" fill-rule="evenodd" sketch:type="MSPage">
        <g sketch:type="MSArtboardGroup" transform="translate(-1081.000000, -295.000000)" id="captr.flyout" fill="#9DA5AD">
            <g sketch:type="MSLayerGroup" transform="translate(928.000000, 114.000000)">
                <g id="settings.bar" transform="translate(16.000000, 181.000000)" sketch:type="MSShapeGroup">
                    <path d="M144.04182,16 C143.786272,16 143.571232,15.808 143.543227,15.5545 L143.410202,14.347 C142.776583,14.188 142.176471,13.937 141.617366,13.598 L140.703194,14.328 C140.503657,14.488 140.216603,14.472 140.035069,14.2915 L138.713821,12.974 C138.533287,12.794 138.516784,12.507 138.677314,12.308 L139.408452,11.3975 C139.058386,10.826 138.802338,10.2105 138.642308,9.5605 L137.446584,9.4285 C137.192536,9.4005 137,9.1865 137,8.9315 L137,7.0685 C137,6.814 137.192536,6.5995 137.446084,6.5715 L138.638807,6.44 C138.798837,5.784 139.056886,5.1635 139.409952,4.5865 L138.672314,3.668 C138.512284,3.469 138.528287,3.182 138.70882,3.002 L140.030068,1.6845 C140.211602,1.504 140.499656,1.4885 140.698193,1.648 L141.621867,2.3855 C142.179971,2.048 142.779084,1.798 143.411202,1.6395 L143.543227,0.445 C143.571732,0.1915 143.786272,0 144.04182,0 L145.910171,0 C146.165719,0 146.380259,0.1915 146.408764,0.445 L146.538288,1.615 C147.201413,1.7705 147.829531,2.0245 148.41164,2.375 L149.32081,1.648 C149.519847,1.489 149.807401,1.504 149.988935,1.6845 L151.310183,3.002 C151.491217,3.1825 151.50722,3.4695 151.34719,3.6685 L150.626555,4.563 C150.988623,5.148 151.252172,5.779 151.413703,6.447 L152.553416,6.5715 C152.807464,6.5995 153,6.8135 153,7.0685 L153,8.9315 C153,9.187 152.807464,9.401 152.553416,9.4285 L151.410702,9.554 C151.248172,10.219 150.984122,10.848 150.622554,11.431 L151.34719,12.3315 C151.50722,12.5305 151.491217,12.8175 151.310183,12.998 L149.988935,14.3155 C149.807401,14.4965 149.519847,14.5115 149.32081,14.352 L148.402138,13.6175 C147.822529,13.965 147.198412,14.2175 146.538789,14.3715 L146.408764,15.5545 C146.380759,15.808 146.165719,16 145.910171,16 L144.04182,16 Z M144.491405,15 L145.460586,15 L145.582109,13.9 C145.606614,13.679 145.774645,13.5005 145.993686,13.4625 C146.773833,13.326 147.500469,13.0325 148.153591,12.5895 C148.336126,12.467 148.576671,12.4755 148.749703,12.613 L149.597862,13.2915 L150.283491,12.608 L149.611365,11.773 C149.471838,11.6 149.464337,11.3555 149.591861,11.1735 C150.051447,10.519 150.358005,9.7895 150.503032,9.0055 C150.543039,8.7885 150.721073,8.623 150.941114,8.599 L151.997312,8.4835 L151.997312,7.5165 L150.943614,7.4015 C150.723073,7.377 150.54504,7.2115 150.505532,6.994 C150.361505,6.2075 150.055948,5.476 149.596362,4.8195 C149.468838,4.6375 149.47734,4.3935 149.616366,4.2205 L150.283491,3.392 L149.597862,2.7085 L148.758205,3.38 C148.586172,3.5175 148.343627,3.527 148.162093,3.403 C147.50597,2.957 146.776833,2.661 145.993186,2.524 C145.774145,2.486 145.606114,2.3075 145.581609,2.0865 L145.461086,1 L144.490905,1 L144.368382,2.1045 C144.343877,2.3225 144.180346,2.4995 143.964806,2.541 C143.211665,2.6855 142.508533,2.979 141.874414,3.4135 C141.69238,3.5385 141.448334,3.5295 141.277302,3.3915 L140.422142,2.708 L139.736013,3.3925 L140.419141,4.243 C140.557667,4.4155 140.566669,4.658 140.440145,4.84 C139.990061,5.4895 139.689504,6.212 139.547478,6.9875 C139.50797,7.2045 139.329437,7.37 139.109396,7.3945 L138.002688,7.5165 L138.002688,8.484 L139.111396,8.6055 C139.331437,8.63 139.509471,8.795 139.549978,9.012 C139.693005,9.782 139.992061,10.4995 140.438645,11.1445 C140.564668,11.326 140.555667,11.5685 140.417141,11.741 L139.740514,12.584 L140.426642,13.268 L141.272801,12.592 C141.445334,12.454 141.689379,12.446 141.870913,12.5705 C142.505032,13.006 143.209164,13.301 143.964306,13.446 C144.180346,13.4875 144.343877,13.6645 144.367881,13.882 L144.491405,15 L144.491405,15 Z M144.9935,10.008 C143.890827,10.008 142.994,9.11070541 142.994,8.008 C142.994,6.90529459 143.890827,6.008 144.9935,6.008 C146.096673,6.008 146.994,6.90529459 146.994,8.008 C146.994,9.11070541 146.096673,10.008 144.9935,10.008 Z M144.9935,7.01000401 C144.443913,7.01000401 143.996248,7.4578998 143.996248,8.008 C143.996248,8.5581002 144.443913,9.00599599 144.9935,9.00599599 C145.544087,9.00599599 145.991752,8.5581002 145.991752,8.008 C145.991752,7.4578998 145.544087,7.01000401 144.9935,7.01000401 Z" id="Fill-1"></path>
                </g>
            </g>
        </g>
    </g>
</svg>