<?xml version="1.0" standalone="no"?>
<!DOCTYPE svg PUBLIC "-//W3C//DTD SVG 1.1//EN" "http://www.w3.org/Graphics/SVG/1.1/DTD/svg11.dtd" >
<svg xmlns="http://www.w3.org/2000/svg">
<metadata>
Created by FontPrep 20130207 at Sun Feb  8 00:24:44 2015
 By Steffen Dietz
Copyright (c) 2014 by Julieta Ulanovsky. All rights reserved.
</metadata>
<defs>
<font id="2eb9a020d90588d099da01ff1a93c338" horiz-adv-x='1024' >
  <font-face 
    font-family="Montserrat-Bold"
    font-weight="700"
    font-stretch="normal"
    units-per-em="2048"
    panose-1="0 0 8 0 0 0 0 0 0 0"
    ascent="1638"
    descent="-410"
    x-height="1104"
    cap-height="1434"
    bbox="-563 -604 2960 1997"
    underline-thickness="102"
    underline-position="-102"
    unicode-range="U+0020-FB02"
  />
<missing-glyph horiz-adv-x="1024" 
d="M102 1239v-1044l349 522zM164 102h696l-348 523zM573 717l349 -522v1044zM512 809l348 522h-696zM0 0v1434h1024v-1434h-1024z" />
    <glyph glyph-name="fi" unicode="fi" horiz-adv-x="1427" 
d="M934 1104h352v-1104h-352v1104zM207 1065v92q0 179 119 279t303 100q123 0 215 -43l-13 -281q-76 43 -147 43q-127 0 -127 -120v-70h250v-234h-250v-831h-350v831h-150v234h150zM1110 1233q-82 0 -134 53t-52 135t52 134q52 53 134 53t135 -52t53 -135q0 -82 -53 -135
t-135 -53z" />
    <glyph glyph-name="fl" unicode="fl" horiz-adv-x="1462" 
d="M1311 1520v-1520h-355v1520h355zM207 1065v106q0 167 117 269t305 100q127 0 217 -39l-12 -282q-59 43 -127 46t-109 -38t-41 -107v-55h252l-2 -231h-250v-834h-350v834h-150l2 231h148z" />
    <glyph glyph-name=".notdef" horiz-adv-x="1024" 
d="M102 1239v-1044l349 522zM164 102h696l-348 523zM573 717l349 -522v1044zM512 809l348 522h-696zM0 0v1434h1024v-1434h-1024z" />
    <glyph glyph-name=".null" horiz-adv-x="0" 
 />
    <glyph glyph-name="nonmarkingreturn" horiz-adv-x="681" 
 />
    <glyph glyph-name="space" unicode=" " horiz-adv-x="475" 
 />
    <glyph glyph-name="exclam" unicode="!" horiz-adv-x="520" 
d="M269 326q75 0 123 -47t48 -123t-48 -124t-123 -48t-123 48t-48 124t48 123t123 47zM106 1425h336v-364l-61 -569h-213l-62 569v364z" />
    <glyph glyph-name="quotedbl" unicode="&#x22;" horiz-adv-x="899" 
d="M776 874h-266v560h266v-560zM389 874h-266v560h266v-560z" />
    <glyph glyph-name="numbersign" unicode="#" horiz-adv-x="1505" 
d="M913 856h-284l-37 -293h285zM1167 856l-37 -293h277l-29 -244h-278l-39 -319h-254l39 319h-285l-39 -319h-254l39 319h-276l28 244h279l35 293h-273l27 244h276l41 334h254l-41 -334h287l41 334h254l-41 -334h277l-27 -244h-281z" />
    <glyph glyph-name="dollar" unicode="$" horiz-adv-x="1318" 
d="M694 283q185 0 187 125q-1 59 -57 99t-140 59q-187 42 -365 124q-84 39 -140 124t-56 204q-1 162 107 272t296 146v303h271v-293q268 -29 463 -156l-138 -284q-114 66 -242 108t-216 41q-158 0 -158 -104q0 -68 78 -109t190 -71q112 -29 222 -71q112 -42 190 -136
t78 -238q0 -184 -129 -296t-338 -136v-309h-271v317q-285 45 -491 215l141 281q109 -94 256 -154t262 -61z" />
    <glyph glyph-name="percent" unicode="%" horiz-adv-x="2095" 
d="M1632 672q-82 0 -128 -65t-46 -179t46 -180t128 -66t128 66t46 180t-46 180q-46 64 -128 64zM1632 860q184 0 292 -117t108 -317t-108 -316q-108 -118 -292 -118t-293 118t-109 318t110 316q108 116 292 116zM465 1251q-82 -1 -128 -65t-46 -178t46 -180q46 -64 128 -64
t128 64t46 180q0 115 -46 179t-128 64zM365 0l1024 1436h331l-1024 -1436h-331zM465 1440q184 0 292 -117q107 -117 107 -317t-108 -316q-108 -117 -291 -117q-184 0 -293 117t-109 317q0 201 109 317t293 116z" />
    <glyph glyph-name="ampersand" unicode="&#x26;" horiz-adv-x="1402" 
d="M624 231q102 0 203 80q-217 217 -292 303q-133 -88 -133 -181t60 -147t162 -55zM553 1092q0 -76 74 -189q193 104 192 223q0 54 -36 90t-96 36t-97 -42t-37 -118zM113 401q0 131 75 221q76 89 209 162q-121 172 -121 326t112 247t295 93t298 -90t115 -228t-89 -227
q-89 -88 -249 -170q109 -119 227 -235q59 102 96 229l226 -160q-51 -139 -131 -254l213 -202l-179 -174l-202 196q-182 -151 -400 -151t-357 118q-138 118 -138 299z" />
    <glyph glyph-name="quotesingle" unicode="'" horiz-adv-x="512" 
d="M389 874h-266v560h266v-560z" />
    <glyph glyph-name="parenleft" unicode="(" horiz-adv-x="708" 
d="M457 634q0 -490 248 -888h-318q-262 375 -262 887t262 887h318q-248 -396 -248 -886z" />
    <glyph glyph-name="parenright" unicode=")" horiz-adv-x="733" 
d="M682 633q0 -516 -260 -887h-318q246 393 246 887t-246 887h318q260 -371 260 -887z" />
    <glyph glyph-name="asterisk" unicode="*" horiz-adv-x="774" 
d="M471 983l4 -197h-176l4 197l-168 -100l-88 151l170 96l-170 93l88 157l166 -102l-2 195h176l-2 -195l168 98l88 -153l-174 -93l174 -96l-88 -155z" />
    <glyph glyph-name="plus" unicode="+" horiz-adv-x="1044" 
d="M977 557h-344v-344h-223v344h-342v223h342v344h223v-344h344v-223z" />
    <glyph glyph-name="comma" unicode="," horiz-adv-x="493" 
d="M249 324q73 0 121 -45t48 -117t-45 -142l-150 -217h-168l92 220q-67 45 -67 126t48 128t121 47z" />
    <glyph glyph-name="hyphen" unicode="-" horiz-adv-x="765" 
d="M653 516h-540v223h540v-223z" />
    <glyph glyph-name="period" unicode="." horiz-adv-x="497" 
d="M248 326q76 0 124 -47t48 -123t-48 -124t-124 -48t-123 48t-47 124t47 123t123 47z" />
    <glyph glyph-name="slash" unicode="/" horiz-adv-x="722" 
d="M223 -227h-297l662 1888h297z" />
    <glyph glyph-name="zero" unicode="0" horiz-adv-x="1439" 
d="M981 720q-1 244 -63 352t-199 108t-199 -108t-61 -354q0 -246 61 -354q60 -108 198 -108t201 110q62 110 62 354zM84 718q0 352 165 540t471 188t470 -188t164 -540t-164 -540t-470 -188t-471 188t-165 540z" />
    <glyph glyph-name="one" unicode="1" horiz-adv-x="843" 
d="M643 0h-364v1143h-265v293h629v-1436z" />
    <glyph glyph-name="two" unicode="2" horiz-adv-x="1228" 
d="M627 1450q215 0 352 -103t137 -272q0 -201 -270 -477l-291 -309h604v-289h-1073v236l512 542q137 143 137 246q0 61 -43 96t-119 35q-178 0 -391 -182l-137 262q287 215 582 215z" />
    <glyph glyph-name="three" unicode="3" horiz-adv-x="1142" 
d="M1079 451q-1 -207 -151 -337t-398 -130q-145 0 -290 47t-244 127l147 276q162 -174 359 -174q106 0 164 49q57 49 57 137q0 180 -223 181h-230v194l320 332h-522v279h946v-207l-359 -373l68 -10q162 -25 259 -127t97 -264z" />
    <glyph glyph-name="four" unicode="4" horiz-adv-x="1296" 
d="M735 592v307h338v-307h195v-277h-195v-315h-338v315h-680v244l453 875h350l-426 -842h303z" />
    <glyph glyph-name="five" unicode="5" horiz-adv-x="1218" 
d="M1090 1145h-609v-232h129q244 1 394 -119t149 -313q0 -225 -156 -360t-415 -135q-139 0 -290 49t-263 129l145 276q164 -176 365 -176q106 0 164 50q59 50 59 138t-58 136q-58 47 -165 47q-242 0 -389 -10v809h940v-289z" />
    <glyph glyph-name="six" unicode="6" horiz-adv-x="1294" 
d="M691 676q-101 0 -159 -55t-59 -143q0 -88 55 -146q56 -58 158 -58t158 54t57 150q0 95 -54 147q-55 51 -156 51zM748 1450q268 0 462 -119l-139 -254q-127 92 -298 92t-257 -100t-82 -281q109 154 331 154t348 -127t126 -345t-146 -352t-391 -134q-290 0 -454 190
t-164 527t180 543q181 206 484 206z" />
    <glyph glyph-name="seven" unicode="7" horiz-adv-x="1216" 
d="M387 1145v-201h-319v490h1116v-248l-529 -1186h-385l512 1145h-395z" />
    <glyph glyph-name="eight" unicode="8" horiz-adv-x="1314" 
d="M657 623q-119 -1 -181 -49t-62 -138t62 -139t181 -49t183 48q63 48 63 139q1 91 -63 139t-183 49zM451 1045q1 -160 207 -160q206 1 206 161q0 78 -53 121q-54 43 -154 43t-153 -43t-53 -122zM656 1450q234 0 374 -104q139 -104 139 -281q0 -94 -48 -172t-132 -125
q119 -49 188 -146t68 -216q0 -193 -160 -308q-160 -114 -428 -114t-428 112t-159 303q0 123 73 222q74 98 199 147q-92 51 -145 133t-54 174q-1 171 139 273t374 102z" />
    <glyph glyph-name="nine" unicode="9" horiz-adv-x="1294" 
d="M609 760q101 0 160 55q58 55 58 143t-55 146q-56 57 -158 57t-158 -54q-56 -53 -56 -149t54 -147t155 -51zM553 -14q-268 0 -463 118l139 254q127 -92 298 -92t257 100t82 281q-109 -153 -331 -153t-348 127t-126 345q1 218 147 352t390 134q289 0 454 -190t165 -528
q-1 -338 -181 -542q-180 -206 -483 -206z" />
    <glyph glyph-name="colon" unicode=":" horiz-adv-x="491" 
d="M248 326q76 0 124 -47t48 -123t-48 -124t-124 -48t-123 48t-47 124t47 123t123 47zM248 934q76 0 124 -47t48 -123t-48 -124t-124 -48t-123 48t-47 124t47 123t123 47z" />
    <glyph glyph-name="semicolon" unicode=";" horiz-adv-x="495" 
d="M249 324q73 0 121 -45t48 -117t-45 -142l-150 -217h-168l92 220q-67 45 -67 126t48 128t121 47zM248 592q-76 0 -123 48t-47 124t47 123t123 47t124 -47t48 -123t-48 -124t-124 -48z" />
    <glyph glyph-name="less" unicode="&#x3c;" horiz-adv-x="1044" 
d="M977 936l-680 -272l680 -273v-248l-909 379v285l909 379v-250z" />
    <glyph glyph-name="equal" unicode="=" horiz-adv-x="1044" 
d="M977 338h-909v223h909v-223zM977 778h-909v223h909v-223z" />
    <glyph glyph-name="greater" unicode="&#x3e;" horiz-adv-x="1044" 
d="M66 408l682 272l-682 272v248l911 -379v-284l-911 -379v250z" />
    <glyph glyph-name="question" unicode="?" horiz-adv-x="966" 
d="M463 326q76 0 124 -47t48 -123t-48 -124t-124 -48t-123 48t-47 124t47 123t123 47zM468 1440q212 0 329 -93t117 -258t-111 -280q-45 -47 -91 -92q-112 -110 -112 -228h-264q0 168 89 269q38 43 75 82q88 93 88 186q0 133 -148 133q-159 0 -161 -186l-273 2
q2 219 126 342t336 123z" />
    <glyph glyph-name="at" unicode="@" horiz-adv-x="1878" 
d="M911 807q-92 0 -147 -71q-55 -70 -55 -176t55 -182t148 -75q93 0 150 74q56 74 56 181t-57 178q-58 71 -150 71zM951 1434q378 0 628 -248t250 -625q0 -227 -110 -365t-283 -139q-201 0 -240 160l-4 27q-115 -164 -301 -164t-321 133q-134 133 -134 338t117 344t303 139
q74 0 142 -30t98 -57q31 -28 39 -44v109h249v-690q0 -100 72 -100t123 94q51 95 51 239q0 301 -183 498t-485 197t-508 -206q-204 -206 -204 -494t194 -478t482 -191q221 0 387 125l94 -164q-88 -66 -224 -106t-257 -41q-375 0 -626 244q-251 243 -251 613t262 626t640 256z
" />
    <glyph glyph-name="A" unicode="A" horiz-adv-x="1576" 
d="M989 541l-205 530l-209 -530h414zM1096 264h-627l-104 -264h-375l618 1434h375l604 -1434h-389z" />
    <glyph glyph-name="B" unicode="B" horiz-adv-x="1464" 
d="M506 598v-317h295q102 0 161 43q58 42 58 116t-58 116t-161 42h-295zM506 1155v-295h295q80 0 127 40t47 109t-47 107t-127 39h-295zM143 1434h678q242 0 384 -98t143 -261q0 -113 -66 -197t-180 -118q135 -27 215 -125t80 -238q-1 -181 -149 -289t-402 -108h-703v1434z
" />
    <glyph glyph-name="C" unicode="C" horiz-adv-x="1417" 
d="M815 1446q160 0 314.5 -65.5t263.5 -176.5l-211 -250q-70 86 -167 136.5t-194 50.5q-170 0 -284.5 -120t-114.5 -298t114.5 -299t284.5 -121q90 0 187.5 45t173.5 123l213 -225q-117 -119 -275.5 -190.5t-316.5 -71.5q-324 0 -539 211t-215 523t219 520t547 208z" />
    <glyph glyph-name="D" unicode="D" horiz-adv-x="1570" 
d="M508 1143v-852h260q168 0 276 118t107 306q0 188 -113 308t-286 120h-244zM143 1434h617q338 0 550 -199t212 -517t-215 -518t-562 -200h-602v1434z" />
    <glyph glyph-name="E" unicode="E" horiz-adv-x="1380" 
d="M1266 1147h-758v-285h684v-287h-684v-288h780v-287h-1145v1434h1123v-287z" />
    <glyph glyph-name="F" unicode="F" horiz-adv-x="1236" 
d="M1206 1147h-698v-332h643v-287h-643v-528h-365v1434h1063v-287z" />
    <glyph glyph-name="G" unicode="G" horiz-adv-x="1521" 
d="M1096 729h315v-559q-117 -82 -281.5 -134t-314.5 -52q-328 0 -547 210t-219 522t225.5 521t565.5 209q160 0 317.5 -57.5t267.5 -155.5l-204 -248q-78 72 -180.5 114t-202.5 42q-176 0 -296 -122t-120 -303t121 -304t299 -123q115 0 254 69v371z" />
    <glyph glyph-name="H" unicode="H" horiz-adv-x="1609" 
d="M1466 0h-364v557h-594v-557h-365v1434h365v-590h594v590h364v-1434z" />
    <glyph glyph-name="I" unicode="I" horiz-adv-x="651" 
d="M508 0h-365v1434h365v-1434z" />
    <glyph glyph-name="J" unicode="J" horiz-adv-x="1097" 
d="M979 1436v-971q0 -227 -132 -354t-364 -127q-293 0 -493 229l168 244q154 -160 301 -160q154 0 153 176v668h-491v295h858z" />
    <glyph glyph-name="K" unicode="K" horiz-adv-x="1529" 
d="M508 0h-365v1434h365v-621l549 621h422l-533 -594l567 -840h-436l-379 563l-190 -211v-352z" />
    <glyph glyph-name="L" unicode="L" horiz-adv-x="1146" 
d="M508 305h608v-305h-973v1434h365v-1129z" />
    <glyph glyph-name="M" unicode="M" horiz-adv-x="1863" 
d="M1718 0h-321l-2 932l-344 -789h-238l-344 789v-932h-326v1436h400l389 -854l389 854h397v-1436z" />
    <glyph glyph-name="N" unicode="N" horiz-adv-x="1609" 
d="M1466 0h-321l-660 883v-883h-342v1434h322l661 -885v885h340v-1434z" />
    <glyph glyph-name="O" unicode="O" horiz-adv-x="1648" 
d="M826 1141q-168 0 -286 -122t-118 -302t120 -304t286 -124t281 124q116 124 116 304t-116 302t-283 122zM824 1446q333 0 554 -208t221 -520t-222 -523t-554 -211t-553 210t-221 524t221 521t554 207z" />
    <glyph glyph-name="P" unicode="P" horiz-adv-x="1392" 
d="M508 1147v-457h242q120 0 186 60t66 171q0 112 -66 169t-186 57h-242zM143 1434h625q274 0 426 -130t152 -376t-152 -385t-426 -140h-260v-403h-365v1434z" />
    <glyph glyph-name="Q" unicode="Q" horiz-adv-x="1658" 
d="M422 717q0 -180 120 -304t286 -124t281 124q116 124 116 304t-116 302t-283 122q-168 0 -286 -122t-118 -302zM49 722q0 310 221 517t554 207t554 -208t221 -519q0 -236 -130 -420t-347 -264q78 -99 178 -99t242 109l129 -225q-175 -158 -435 -158q-128 0 -249 85
t-192 237q-322 10 -534 219t-212 519z" />
    <glyph glyph-name="R" unicode="R" horiz-adv-x="1482" 
d="M508 690h276q119 0 184.5 59.5t65.5 171.5t-65.5 169t-184.5 57h-276v-457zM508 403v-403h-365v1434h641q285 0 440.5 -130t155.5 -370q0 -332 -260 -461l301 -473h-413l-213 403h-287z" />
    <glyph glyph-name="S" unicode="S" horiz-adv-x="1318" 
d="M694 1450q322 0 566 -160l-138 -284q-113 66 -241.5 107.5t-216.5 41.5q-158 0 -158 -104q0 -68 78 -109t189.5 -70.5t223 -71.5t189.5 -136.5t78 -237.5q0 -207 -162 -322.5t-412 -115.5q-178 0 -352 61.5t-303 167.5l141 281q109 -94 256.5 -154.5t248.5 -60.5
q200 0 200 125q0 59 -56.5 99t-140.5 59.5t-182.5 52t-182 71.5t-140 124t-56.5 204q0 197 156.5 314.5t414.5 117.5z" />
    <glyph glyph-name="T" unicode="T" horiz-adv-x="1251" 
d="M1239 1141h-432v-1141h-365v1141h-428v295h1225v-295z" />
    <glyph glyph-name="U" unicode="U" horiz-adv-x="1552" 
d="M1434 1434v-832q0 -286 -176 -452t-479 -166q-302 0 -481 167t-179 451v832h364v-832q0 -143 83 -228t215 -85t211 84t79 229v832h363z" />
    <glyph glyph-name="V" unicode="V" horiz-adv-x="1492" 
d="M932 0h-377l-557 1434h389l367 -1055l366 1055h375z" />
    <glyph glyph-name="W" unicode="W" horiz-adv-x="2213" 
d="M1755 0h-375l-266 991l-270 -991h-377l-469 1434h389l281 -1055l274 1055h356l281 -1055l276 1055h373z" />
    <glyph glyph-name="X" unicode="X" horiz-adv-x="1503" 
d="M975 750l514 -750h-436l-310 457l-309 -457h-424l512 733l-479 701h424l276 -418l277 418h428z" />
    <glyph glyph-name="Y" unicode="Y" horiz-adv-x="1392" 
d="M883 0h-363v453l-530 981h364l346 -625l338 625h365l-520 -971v-463z" />
    <glyph glyph-name="Z" unicode="Z" horiz-adv-x="1382" 
d="M1323 289v-289h-1266v233l768 912h-741v289h1227v-234l-766 -911h778z" />
    <glyph glyph-name="bracketleft" unicode="[" horiz-adv-x="741" 
d="M705 1257h-246v-1249h246v-262h-562v1774h562v-263z" />
    <glyph glyph-name="backslash" unicode="\" horiz-adv-x="931" 
d="M324 1661l661 -1888h-297l-661 1888h297z" />
    <glyph glyph-name="bracketright" unicode="]" horiz-adv-x="886" 
d="M743 1520v-1774h-561v262h246v1249h-246v263h561z" />
    <glyph glyph-name="asciicircum" unicode="^" horiz-adv-x="1177" 
d="M860 283l-272 591l-273 -591h-249l380 792h285l379 -792h-250z" />
    <glyph glyph-name="underscore" unicode="_" horiz-adv-x="1193" 
d="M1194 -418h-1194v193h1194v-193z" />
    <glyph glyph-name="grave" unicode="`" 
d="M621 1229h-271l-266 231l319 113z" />
    <glyph glyph-name="a" unicode="a" horiz-adv-x="1228" 
d="M548 223q79 0 142 42t80 110v98h-223q-160 0 -160 -119q0 -61 41 -96t120 -35zM770 680q0 174 -236 174q-128 0 -309 -92l-100 233q267 125 503 125t362 -105t128 -294v-721h-346v127q-109 -143 -338 -143q-174 0 -276 96t-102 252t109 242q110 86 314 90h291v16z" />
    <glyph glyph-name="b" unicode="b" horiz-adv-x="1402" 
d="M752 844q-108 0 -178 -80t-68 -208q0 -128 68 -208t177 -80q111 0 179 81t67 208q0 127 -68 207q-69 80 -177 80zM849 1116q220 0 362 -157q143 -157 143 -411t-140 -407t-363 -153q-224 0 -345 159v-147h-354v1520h354v-562q123 158 343 158z" />
    <glyph glyph-name="c" unicode="c" horiz-adv-x="1150" 
d="M623 1116q164 0 291.5 -64.5t199.5 -183.5l-254 -153q-82 115 -223 114q-102 0 -166.5 -76.5t-64.5 -202.5t63 -203t168 -77q156 0 225 125l258 -151q-68 -123 -197.5 -189.5t-304.5 -66.5q-256 0 -412.5 154.5t-156.5 407.5t159 409.5t415 156.5z" />
    <glyph glyph-name="d" unicode="d" horiz-adv-x="1404" 
d="M653 260q111 0 179 80t67 208q0 128 -68 208q-69 80 -179 80t-178 -79t-66 -208q0 -129 67 -209t178 -80zM1253 1520v-1520h-354v145q-121 -159 -343 -159t-363 158t-141 412q0 255 138 409q140 153 364 153t345 -160v562h354z" />
    <glyph glyph-name="e" unicode="e" horiz-adv-x="1232" 
d="M842 647q0 100 -58.5 161.5t-151.5 61.5t-155 -60.5t-78 -162.5h443zM639.5 1116q272.5 0 416.5 -176t126 -483h-776q27 -98 94 -151.5t166 -53.5q152 0 264 113l186 -183q-178 -195 -481 -194q-268 0 -427 153.5t-159 408.5t159 410.5t431.5 155.5z" />
    <glyph glyph-name="f" unicode="f" horiz-adv-x="790" 
d="M557 1135v-80h250v-234h-250v-821h-350v821h-150v234h150v102q0 179 119 279t299 100t313 -78l-125 -248q-61 45 -123 46q-62 2 -97 -30q-36 -32 -36 -91z" />
    <glyph glyph-name="g" unicode="g" horiz-adv-x="1325" 
d="M613 315q103 0 167 75t64 195q0 121 -64 195t-166 74q-104 0 -169 -75t-65 -195t66 -194q64 -75 167 -75zM1196 1104v-1004q0 -233 -165 -372q-165 -140 -436 -140t-489 146l123 239q160 -111 342 -110q127 0 200 61t73 166v117q-113 -147 -321 -147t-340 146
q-132 148 -132 384t129 382q129 144 339 145t325 -148v135h352z" />
    <glyph glyph-name="h" unicode="h" horiz-adv-x="1388" 
d="M1280 696v-696h-354v598q0 96 -52.5 152.5t-148.5 56.5t-157.5 -74t-61.5 -188v-545h-354v1520h354v-598q117 194 371 198q182 0 292.5 -115.5t110.5 -308.5z" />
    <glyph glyph-name="i" unicode="i" horiz-adv-x="636" 
d="M494 0h-353v1104h353v-1104zM319 1608q83 0 135 -52t52 -135q0 -82 -52 -135t-134 -53t-135 53q-52 53 -52 135q0 83 52 135t134 52z" />
    <glyph glyph-name="j" unicode="j" horiz-adv-x="653" 
d="M500 1104v-1137q0 -180 -113 -280q-113 -99 -282 -99t-283 72l90 248q66 -39 121 -40q114 -2 112 122v1114h355zM322 1608q88 0 144 -52t56 -136q0 -83 -56 -135t-144 -52t-145 52q-56 52 -56 134q1 81 57 135t144 54z" />
    <glyph glyph-name="k" unicode="k" horiz-adv-x="1290" 
d="M506 0h-354v1520h354v-803l364 387h402l-406 -424l418 -680h-420l-239 426l-119 -125v-301z" />
    <glyph glyph-name="l" unicode="l" horiz-adv-x="657" 
d="M506 0h-354v1520h354v-1520z" />
    <glyph glyph-name="m" unicode="m" horiz-adv-x="2123" 
d="M2013 0h-352v598q0 98 -51 154q-50 56 -144 56q-94 -1 -152 -74t-59 -187v-547h-354v598q0 98 -50 154t-144 56q-93 -1 -153 -75t-60 -186v-547h-353v1104h353v-182q113 195 364 198q133 0 231 -66q97 -67 138 -184q108 246 389 250q182 0 290 -116t107 -308v-696z" />
    <glyph glyph-name="n" unicode="n" horiz-adv-x="1378" 
d="M1268 696v-696h-353v598q0 96 -52 152.5t-144 56.5t-152.5 -61.5t-70.5 -161.5v-584h-355v1104h355v-180q116 192 368 196q182 0 293 -115.5t111 -308.5z" />
    <glyph glyph-name="o" unicode="o" horiz-adv-x="1304" 
d="M652 836q-110 0 -178 -80t-68 -208t68 -207t178 -79t178 79t69 207q-1 128 -69 208t-178 80zM49 553q0 255 166 409t437 154t438 -154q166 -155 166 -409t-166 -410q-166 -155 -438 -155t-437 156q-166 156 -166 409z" />
    <glyph glyph-name="p" unicode="p" horiz-adv-x="1402" 
d="M752 844q-108 0 -178 -80t-68 -208q0 -128 68 -208t177 -80q111 0 179 81t67 208q0 127 -68 207q-69 80 -177 80zM849 1116q220 0 362 -157q143 -157 143 -411t-140 -407t-363 -153q-224 0 -345 159v-544h-354v1501h354v-146q123 158 343 158z" />
    <glyph glyph-name="q" unicode="q" horiz-adv-x="1404" 
d="M653 260q111 0 179 80t67 208q0 128 -68 208q-69 80 -179 80t-178 -79t-66 -208q0 -129 67 -209t178 -80zM1253 1104v-1501h-354v542q-121 -159 -343 -159t-363 158t-141 412q0 255 138 409q140 153 364 153t345 -160v146h354z" />
    <glyph glyph-name="r" unicode="r" horiz-adv-x="874" 
d="M496 1104v-186q117 199 358 202v-319q-152 14 -248 -50.5t-110 -183.5v-567h-355v1104h355z" />
    <glyph glyph-name="s" unicode="s" horiz-adv-x="1050" 
d="M559.5 1120q221.5 0 431.5 -125l-121 -229q-205 111 -348 111q-109 0 -108 -76q0 -41 59 -68.5t145.5 -50.5t171 -56.5t144 -107.5t59.5 -180q0 -166 -129 -259t-336 -93q-293 0 -495 155l112 226q195 -137 392 -138q121 0 120 76q0 43 -58 72t-142 51.5t-168 56
t-142.5 105.5t-58.5 180q0 166 125 258t346.5 92z" />
    <glyph glyph-name="t" unicode="t" horiz-adv-x="890" 
d="M545 389q0 -125 102 -121q49 0 137 37l70 -246q-129 -76 -294 -75.5t-266 91.5t-101 259v487h-154v232h154v307h352v-305h289v-234h-289v-432z" />
    <glyph glyph-name="u" unicode="u" horiz-adv-x="1357" 
d="M1217 1104v-1104h-355v182q-113 -197 -358 -196q-180 0 -288 114t-107 308v696h354v-596q0 -98 50 -154t142 -56q92 1 150 74q57 73 57 187v545h355z" />
    <glyph glyph-name="v" unicode="v" horiz-adv-x="1169" 
d="M768 0h-362l-416 1104h364l238 -780l239 780h353z" />
    <glyph glyph-name="w" unicode="w" horiz-adv-x="1918" 
d="M1530 0h-350l-217 700l-218 -700h-352l-403 1104h360l228 -764l221 764h338l227 -764l223 764h346z" />
    <glyph glyph-name="x" unicode="x" horiz-adv-x="1241" 
d="M623 786l196 318h387l-350 -537l375 -567h-408l-200 346l-226 -346h-389l377 565l-352 539h405z" />
    <glyph glyph-name="y" unicode="y" horiz-adv-x="1187" 
d="M299 -414q-176 0 -322 113l148 242q75 -59 157 -59t126 87l26 56l-459 1079h365l270 -733l240 733h352l-477 -1219q-123 -299 -426 -299z" />
    <glyph glyph-name="z" unicode="z" horiz-adv-x="1132" 
d="M1073 266v-266h-1003v213l542 625h-522v266h965v-213l-541 -625h559z" />
    <glyph glyph-name="braceleft" unicode="{" horiz-adv-x="729" 
d="M520 1128v-249q0 -113 -39 -169t-133 -77q94 -23 133 -80t39 -168v-248q0 -73 38 -103t142 -30v-262h-137q-199 0 -279 64t-79 223v379q1 49 -17 69t-59 21h-80v270h80q41 0 58 19t18 69v381q0 158 80 221t278 64h137v-260q-104 0 -142 -30t-38 -104z" />
    <glyph glyph-name="bar" unicode="|" horiz-adv-x="612" 
d="M438 -225h-264v1870h264v-1870z" />
    <glyph glyph-name="braceright" unicode="}" horiz-adv-x="800" 
d="M786 768v-270h-77q-41 0 -59 -20t-19 -70v-379q0 -158 -80 -223t-279 -64h-135v262q102 0 142 30q39 30 38 103v248q0 113 38 169t134 77q-96 23 -134 79t-38 169v249q0 74 -38 104q-39 30 -142 30v260h135q199 0 279 -64t80 -221v-381q0 -48 17 -68t61 -20h77z" />
    <glyph glyph-name="asciitilde" unicode="~" horiz-adv-x="1044" 
d="M346 844q78 0 167 -52t114 -53q68 0 67 95h236q0 -348 -232 -349q-78 1 -167 53t-113 52q-66 0 -66 -94h-237q0 348 231 348z" />
    <glyph glyph-name="nbspace" unicode="&#xa0;" horiz-adv-x="475" 
 />
    <glyph glyph-name="exclamdown" unicode="&#xa1;" horiz-adv-x="520" 
d="M440 -324h-336v367l62 567h213l61 -567v-367zM278 1120q74 0 122 -49t48 -125t-47 -123q-48 -47 -123 -47t-123 47q-49 47 -49 124t48 125t124 48z" />
    <glyph glyph-name="cent" unicode="&#xa2;" horiz-adv-x="1144" 
d="M772 -315h-274v313q-205 35 -327 183q-122 149 -122 369t122 370t327 186v326h274v-330q229 -51 342 -234l-254 -153q-82 115 -223 114q-102 -1 -167 -77q-64 -76 -64 -202t63 -203t168 -77q155 0 225 125l258 -151q-106 -193 -348 -242v-317z" />
    <glyph glyph-name="sterling" unicode="&#xa3;" horiz-adv-x="1140" 
d="M580 274h528v-274h-1051v274h156v301h-156v242h156v154q0 229 128 354q127 125 373 125t423 -176l-138 -266q-131 137 -260 137q-160 0 -159 -182v-146h342v-242h-342v-301z" />
    <glyph glyph-name="currency" unicode="&#xa4;" horiz-adv-x="1435" 
d="M718 406q108 0 184 74t75 178q0 104 -76 180t-183 76t-182 -76q-75 -74 -75 -180t75 -178q74 -74 182 -74zM1253 655q0 -145 -75 -266l208 -209l-198 -198l-211 213q-125 -66 -260 -66t-256 66l-213 -213l-199 198l209 209q-74 121 -74 266t70 263l-205 202l199 199
l203 -203q123 72 266 72t270 -72l201 203l198 -199l-202 -202q69 -118 69 -263z" />
    <glyph glyph-name="yen" unicode="&#xa5;" horiz-adv-x="1361" 
d="M1241 694v-133h-307l-51 -96v-37h358v-135h-358v-293h-363v293h-379v135h379v27l-57 106h-322v133h250l-401 742h364l346 -629l338 629h365l-397 -742h235z" />
    <glyph glyph-name="brokenbar" unicode="&#xa6;" horiz-adv-x="612" 
d="M438 -225h-264v702h264v-702zM438 944h-264v701h264v-701z" />
    <glyph glyph-name="section" unicode="&#xa7;" horiz-adv-x="1116" 
d="M530 723q-150 0 -149 -86q0 -49 59 -81t148 -32q152 0 151 86q0 49 -60 81q-61 32 -149 32zM593 1421q218 0 441 -125l-106 -217q-209 109 -343 109t-134 -78q0 -74 162 -119t293 -110q69 -35 114 -100t45 -153t-55 -162q-55 -73 -148 -110q72 -43 103 -88t30 -121
q0 -145 -126 -236t-334 -91q-281 0 -502 157l100 220q205 -139 393 -140q66 0 105 23q39 22 39 62q0 67 -213 130q-88 27 -177 63t-152 106q-62 71 -62 173q0 193 215 271q-84 45 -116 93t-32 118q0 145 121 235t339 90z" />
    <glyph glyph-name="dieresis" unicode="&#xa8;" horiz-adv-x="753" 
d="M557 1577q70 0 115 -45t45 -115q0 -71 -45 -115t-115 -44t-115 44q-45 46 -45 116t45 114q45 45 115 45zM162 1577q70 0 114 -45t43 -115q0 -71 -44 -115q-45 -44 -115 -44t-114 44q-44 46 -44 116t45 114q45 45 115 45z" />
    <glyph glyph-name="copyright" unicode="&#xa9;" horiz-adv-x="1484" 
d="M760 1055q158 0 266 -113l-98 -117q-74 86 -162 86t-142 -55t-54 -138t54 -140q54 -58 140 -58t164 78l98 -104q-116 -123 -272 -123t-256 98q-100 99 -100 245t102 244t260 97zM743 1247q-223 -1 -377 -157t-153 -376q0 -220 152 -376q153 -156 375 -156t378 158
t156 377t-154 375t-377 155zM743 1411q291 0 492 -204q201 -205 201 -491t-203 -492t-493 -206t-490 204t-201 491t201 493t493 205z" />
    <glyph glyph-name="ordfeminine" unicode="&#xaa;" horiz-adv-x="804" 
d="M272 1151q0 -74 88 -74t129 72v70h-127q-90 0 -90 -68zM414 1608q152 0 233 -64q82 -64 80 -176v-430h-238v84q-70 -94 -215 -94q-106 0 -169 56q-62 56 -62 150t70 144q70 51 198 51h178v10q0 94 -129 95q-90 0 -217 -50l-57 156q176 68 328 68z" />
    <glyph glyph-name="guillemotleft" unicode="&#xab;" horiz-adv-x="1028" 
d="M772 545l219 -377h-286l-246 377l246 377h286zM319 545l218 -377h-287l-246 377l246 377h287z" />
    <glyph glyph-name="logicalnot" unicode="&#xac;" horiz-adv-x="1183" 
d="M1053 872v-591h-254v368h-731v223h985z" />
    <glyph glyph-name="softhyphen" unicode="&#xad;" horiz-adv-x="765" 
d="M653 516h-540v223h540v-223z" />
    <glyph glyph-name="registered" unicode="&#xae;" horiz-adv-x="1484" 
d="M641 721h121q55 0 86 29t31 81q0 109 -117 109h-121v-219zM1034 838q0 -152 -119 -213l140 -215h-187l-98 184h-129v-184h-162v655h283q132 0 202 -59t70 -168zM739 182q223 0 379 158t156 377t-154 375t-377 156t-377 -158q-154 -156 -153 -376q-1 -220 151 -376
t375 -156zM743 1411q291 0 492 -204q201 -205 201 -491t-203 -492t-493 -206t-490 204t-201 491t201 493t493 205z" />
    <glyph glyph-name="macron" unicode="&#xaf;" 
d="M643 1294h-569v238h569v-238z" />
    <glyph glyph-name="degree" unicode="&#xb0;" horiz-adv-x="765" 
d="M520 1432q0 44 -30 74t-75 30q-44 0 -76 -31t-32 -73t32 -74q32 -31 76 -31q45 0 75 31t30 74zM414 1673q100 -1 172 -71t72 -170t-72 -171t-172 -71t-172 71t-72 171t72 170t172 71z" />
    <glyph glyph-name="plusminus" unicode="&#xb1;" horiz-adv-x="1044" 
d="M68 229h909v-225h-909v225zM977 928v-215h-344v-330h-223v330h-342v215h342v332h223v-332h344z" />
    <glyph glyph-name="twosuperior" unicode="&#xb2;" horiz-adv-x="796" 
d="M412 1444q135 0 222 -62t87 -163q0 -123 -170 -287l-168 -166h360v-186h-677v153l317 318q78 82 78 133q1 66 -99 66t-231 -109l-94 172q187 131 375 131z" />
    <glyph glyph-name="threesuperior" unicode="&#xb3;" horiz-adv-x="747" 
d="M698 836q0 -111 -95 -189t-251 -78q-205 0 -342 107l101 182q98 -110 221 -110t123 98t-125 98h-148v125l193 188h-322v175h604v-138l-213 -202l41 -9q97 -16 155 -76t58 -171z" />
    <glyph glyph-name="acute" unicode="&#xb4;" 
d="M627 1460l-267 -231h-270l217 344z" />
    <glyph glyph-name="mu" unicode="&#xb5;" horiz-adv-x="1400" 
d="M1260 1104v-1104h-355v182q-113 -197 -358 -196l-41 2v-385h-354v1501h354v-596q0 -98 50 -154t142 -56q92 1 150 74q57 73 57 187v545h355z" />
    <glyph glyph-name="paragraph" unicode="&#xb6;" horiz-adv-x="1331" 
d="M1188 -219h-264v1540h-205v-1540h-262v885h-56q-309 0 -394 281q-19 67 -19 136q0 185 123 311t374 126h703v-1739z" />
    <glyph glyph-name="periodcentered" unicode="&#xb7;" horiz-adv-x="491" 
d="M245 760q73 0 120 -47t47 -121t-47 -121t-120 -47t-120 47t-47 121t47 121t120 47z" />
    <glyph glyph-name="cedilla" unicode="&#xb8;" 
d="M584 -270q0 -96 -72 -154t-178 -57q-106 0 -201 63l66 146q45 -41 92 -41q47 -1 71 21t23 54q0 32 -25 54q-26 20 -60 20t-83 -8l96 201h199l-68 -133q64 -16 102 -60t38 -106z" />
    <glyph glyph-name="onesuperior" unicode="&#xb9;" horiz-adv-x="561" 
d="M182 580v663h-162v191h412v-854h-250z" />
    <glyph glyph-name="ordmasculine" unicode="&#xba;" horiz-adv-x="845" 
d="M422 1421q-61 0 -99 -43q-38 -42 -38 -112t38 -113t99 -43t99 43t38 113t-38 112t-99 43zM41 1269q1 153 105 246t277 93t277 -94t104 -246t-104 -245t-277 -93t-278 93q-104 93 -104 246z" />
    <glyph glyph-name="guillemotright" unicode="&#xbb;" horiz-adv-x="1040" 
d="M743 545l-217 377h287l246 -377l-246 -377h-287zM289 545l-217 377h286l246 -377l-246 -377h-286z" />
    <glyph glyph-name="onequarter" unicode="&#xbc;" horiz-adv-x="1804" 
d="M1427 350v182h232v-182h119v-172h-119v-178h-232v178h-423v162l274 514h240l-261 -504h170zM182 580v663h-162v191h412v-854h-250zM137 0l1024 1436h332l-1024 -1436h-332z" />
    <glyph glyph-name="onehalf" unicode="&#xbd;" horiz-adv-x="1847" 
d="M1462 864q138 0 224 -62t86 -174t-170 -276l-168 -168h360v-184h-678v154l318 315q78 86 77 135q0 66 -97 66t-232 -109l-95 172q187 131 375 131zM182 580v663h-162v191h412v-854h-250zM137 0l1024 1436h332l-1024 -1436h-332z" />
    <glyph glyph-name="threequarters" unicode="&#xbe;" horiz-adv-x="1925" 
d="M1548 350v182h232v-182h118v-172h-118v-178h-232v178h-424v162l275 514h239l-260 -504h170zM698 836q0 -111 -95 -189t-251 -78q-205 0 -342 107l101 182q98 -110 221 -110t123 98t-125 98h-148v125l193 188h-322v175h604v-138l-213 -202l41 -9q97 -16 155 -76t58 -171z
M260 0l1024 1436h332l-1024 -1436h-332z" />
    <glyph glyph-name="questiondown" unicode="&#xbf;" horiz-adv-x="966" 
d="M499 -336q-212 0 -330 93t-118 258t112 280q46 47 92 92q112 110 112 227h264q0 -159 -90 -269q-37 -44 -74 -82q-92 -94 -90 -187q0 -131 149 -131q156 0 162 186l273 -2q-2 -219 -126 -342t-336 -123zM503 778q-75 0 -123 47t-48 123t48 124t123 48t123 -48t48 -124
t-48 -123t-123 -47z" />
    <glyph glyph-name="Agrave" unicode="&#xc0;" horiz-adv-x="1576" 
d="M989 541l-205 530l-209 -530h414zM1096 264h-627l-104 -264h-375l618 1434h375l604 -1434h-389zM698 1559l-266 231l320 113l217 -344h-271z" />
    <glyph glyph-name="Aacute" unicode="&#xc1;" horiz-adv-x="1576" 
d="M989 541l-205 530l-209 -530h414zM1096 264h-627l-104 -264h-375l618 1434h375l604 -1434h-389zM883 1559h-271l217 344l320 -113z" />
    <glyph glyph-name="Acircumflex" unicode="&#xc2;" horiz-adv-x="1576" 
d="M989 541l-205 530l-209 -530h414zM1096 264h-627l-104 -264h-375l618 1434h375l604 -1434h-389zM670 1579h-254l231 309h283l231 -309h-254l-119 174z" />
    <glyph glyph-name="Atilde" unicode="&#xc3;" horiz-adv-x="1576" 
d="M989 541l-205 530l-209 -530h414zM1096 264h-627l-104 -264h-375l618 1434h375l604 -1434h-389zM702 1690q-61 0 -61 -88h-217q0 319 215 319q67 0 141 -48t94 -48q63 0 64 86h215q0 -317 -213 -318q-70 1 -142 49t-96 48z" />
    <glyph glyph-name="Adieresis" unicode="&#xc4;" horiz-adv-x="1576" 
d="M989 541l-205 530l-209 -530h414zM1096 264h-627l-104 -264h-375l618 1434h375l604 -1434h-389zM987 1587q-70 0 -115 44t-45 114t45 115t115 45t115 -45t45 -115t-45 -114t-115 -44zM592 1587q-70 0 -115 44t-45 114t45 115t115 45t115 -45t45 -115t-45 -114t-115 -44z
" />
    <glyph glyph-name="Aring" unicode="&#xc5;" horiz-adv-x="1576" 
d="M989 541l-205 530l-209 -530h414zM907 1573q-1 47 -33 79t-78 31t-79 -33t-33 -77t33 -78t79 -33t78 32t33 79zM796 1833q110 0 186 -76t77 -180q0 -104 -64 -174l592 -1403h-389l-102 264h-627l-104 -264h-375l604 1403q-62 71 -62 175t77 180t187 75z" />
    <glyph glyph-name="AE" unicode="&#xc6;" horiz-adv-x="2256" 
d="M1020 565v590h-41l-311 -590h352zM2165 287v-287h-1145v303h-492l-159 -303h-379l815 1434h215v2h1122v-289h-760v-285h686v-284h-686v-291h783z" />
    <glyph glyph-name="Ccedilla" unicode="&#xc7;" horiz-adv-x="1417" 
d="M993 -270q0 -96 -71.5 -153.5t-178 -57.5t-200.5 63l65 146q45 -41 92.5 -41t71 21.5t23.5 54t-25 53t-60 20.5t-83 -8l78 162q-287 33 -471.5 237.5t-184.5 503.5t219 507t547 208q160 0 314.5 -65.5t263.5 -176.5l-211 -250q-70 86 -167 136.5t-194 50.5
q-170 0 -284.5 -120t-114.5 -298t114.5 -299t284.5 -121q90 0 187.5 45t173.5 123l213 -225q-205 -211 -492 -254l-49 -96q63 -16 101 -60.5t38 -105.5z" />
    <glyph glyph-name="Egrave" unicode="&#xc8;" horiz-adv-x="1380" 
d="M1266 1147h-758v-285h684v-287h-684v-288h780v-287h-1145v1434h1123v-287zM889 1559h-271l-266 231l320 113z" />
    <glyph glyph-name="Eacute" unicode="&#xc9;" horiz-adv-x="1380" 
d="M1266 1147h-758v-285h684v-287h-684v-288h780v-287h-1145v1434h1123v-287zM1069 1790l-266 -231h-271l218 344z" />
    <glyph glyph-name="Ecircumflex" unicode="&#xca;" horiz-adv-x="1380" 
d="M1266 1147h-758v-285h684v-287h-684v-288h780v-287h-1145v1434h1123v-287zM1081 1579h-254l-118 174l-119 -174h-254l231 309h283z" />
    <glyph glyph-name="Edieresis" unicode="&#xcb;" horiz-adv-x="1380" 
d="M1266 1147h-758v-285h684v-287h-684v-288h780v-287h-1145v1434h1123v-287zM907.5 1905q69.5 0 114.5 -45t45 -115t-45 -114t-114.5 -44t-114.5 44t-45 114t45 115t114.5 45zM512 1905q70 0 115 -45t45 -115t-45 -114t-115 -44t-115 44t-45 114t45 115t115 45z" />
    <glyph glyph-name="Igrave" unicode="&#xcc;" horiz-adv-x="651" 
d="M508 0h-365v1434h365v-1434zM506 1559h-270l-267 231l320 113z" />
    <glyph glyph-name="Iacute" unicode="&#xcd;" horiz-adv-x="651" 
d="M508 0h-365v1434h365v-1434zM684 1790l-266 -231h-271l218 344z" />
    <glyph glyph-name="Icircumflex" unicode="&#xce;" horiz-adv-x="651" 
d="M508 0h-365v1434h365v-1434zM698 1579h-254l-118 174l-119 -174h-254l231 309h283z" />
    <glyph glyph-name="Idieresis" unicode="&#xcf;" horiz-adv-x="651" 
d="M508 0h-365v1434h365v-1434zM524 1905q70 0 115 -45t45 -115t-45 -114t-115 -44t-114 44t-45 114q1 70 45 115t114 45zM129 1905q70 0 115 -45t45 -115t-45 -114t-115 -44t-115 44t-45 114t45 115t115 45z" />
    <glyph glyph-name="Eth" unicode="&#xd0;" horiz-adv-x="1636" 
d="M571 291h263q168 0 276 118t107 306q0 188 -113 308t-287 120h-246v-328h326v-192h-326v-332zM209 1434h616q338 0 550 -199t212 -517t-215 -518t-561 -200h-602v623h-209v192h209v619z" />
    <glyph glyph-name="Ntilde" unicode="&#xd1;" horiz-adv-x="1609" 
d="M1466 0h-321l-660 883v-883h-342v1434h322l661 -885v885h340v-1434zM655 1921q68 0 141.5 -48t94.5 -48q63 0 63 86h215q0 -317 -213 -318q-72 0 -143.5 48.5t-93.5 48.5q-61 0 -62 -88h-217q0 319 215 319z" />
    <glyph glyph-name="Ograve" unicode="&#xd2;" horiz-adv-x="1648" 
d="M826 1141q-168 0 -286 -122t-118 -302t120 -304t286 -124t281 124q116 124 116 304t-116 302t-283 122zM824 1446q333 0 554 -208t221 -520t-222 -523t-554 -211t-553 210t-221 524t221 521t554 207zM989 1559h-270l-266 231l319 113z" />
    <glyph glyph-name="Oacute" unicode="&#xd3;" horiz-adv-x="1648" 
d="M826 1141q-168 0 -286 -122t-118 -302t120 -304t286 -124t281 124q116 124 116 304t-116 302t-283 122zM824 1446q333 0 554 -208t221 -520t-222 -523t-554 -211t-553 210t-221 524t221 521t554 207zM1167 1790l-266 -231h-270l217 344z" />
    <glyph glyph-name="Ocircumflex" unicode="&#xd4;" horiz-adv-x="1648" 
d="M826 1141q-168 0 -286 -122t-118 -302t120 -304t286 -124t281 124q116 124 116 304t-116 302t-283 122zM824 1446q333 0 554 -208t221 -520t-222 -523t-554 -211t-553 210t-221 524t221 521t554 207zM1182 1579h-254l-119 174l-119 -174h-254l232 309h282z" />
    <glyph glyph-name="Otilde" unicode="&#xd5;" horiz-adv-x="1648" 
d="M826 1141q-168 0 -286 -122t-118 -302t120 -304t286 -124t281 124q116 124 116 304t-116 302t-283 122zM824 1446q333 0 554 -208t221 -520t-222 -523t-554 -211t-553 210t-221 524t221 521t554 207zM659 1921q68 0 142 -48t94 -48q63 0 63 86h216q0 -317 -213 -318
q-72 0 -144 48t-94 49q-61 0 -61 -88h-218q0 319 215 319z" />
    <glyph glyph-name="Odieresis" unicode="&#xd6;" horiz-adv-x="1648" 
d="M826 1141q-168 0 -286 -122t-118 -302t120 -304t286 -124t281 124q116 124 116 304t-116 302t-283 122zM824 1446q333 0 554 -208t221 -520t-222 -523t-554 -211t-553 210t-221 524t221 521t554 207zM1008 1905q70 0 114 -45t45 -115q0 -70 -45 -114q-44 -44 -114 -44
t-115 44t-45 114t45 115t115 45zM612 1905q70 0 115 -45t45 -115t-45 -114t-115 -44t-114 44t-45 114q1 70 45 115t114 45z" />
    <glyph glyph-name="multiply" unicode="&#xd7;" horiz-adv-x="1044" 
d="M680 670l242 -244l-158 -158l-242 244l-243 -244l-158 158l244 244l-244 241l158 158l243 -242l242 242l158 -158z" />
    <glyph glyph-name="Oslash" unicode="&#xd8;" horiz-adv-x="1648" 
d="M827 289q166 0 282 124t116 304q0 121 -55 219q-54 98 -148 154l-277 -793q53 -8 82 -8zM827 1141q-169 0 -287 -122q-118 -121 -118 -313t149 -321l265 756h-9zM1599 719q0 -313 -222 -524t-554 -211q-96 0 -182 18l-82 -233h-205l105 297q-188 90 -299 263t-111 390
q0 313 221 520t553 207q66 0 117 -8l76 219h205l-93 -264q215 -80 343 -261t128 -413z" />
    <glyph glyph-name="Ugrave" unicode="&#xd9;" horiz-adv-x="1552" 
d="M1434 1434v-832q0 -286 -176 -452t-479 -166q-302 0 -481 167t-179 451v832h364v-832q0 -143 83 -228t215 -85t211 84t79 229v832h363zM956 1559h-270l-266 231l319 113z" />
    <glyph glyph-name="Uacute" unicode="&#xda;" horiz-adv-x="1552" 
d="M1434 1434v-832q0 -286 -176 -452t-479 -166q-302 0 -481 167t-179 451v832h364v-832q0 -143 83 -228t215 -85t211 84t79 229v832h363zM1137 1790l-267 -231h-270l217 344z" />
    <glyph glyph-name="Ucircumflex" unicode="&#xdb;" horiz-adv-x="1552" 
d="M1434 1434v-832q0 -286 -176 -452t-479 -166q-302 0 -481 167t-179 451v832h364v-832q0 -143 83 -228t215 -85t211 84t79 229v832h363zM1151 1579h-254l-119 174l-119 -174h-253l231 309h283z" />
    <glyph glyph-name="Udieresis" unicode="&#xdc;" horiz-adv-x="1552" 
d="M1434 1434v-832q0 -286 -176 -452t-479 -166q-302 0 -481 167t-179 451v832h364v-832q0 -143 83 -228t215 -85t211 84t79 229v832h363zM977 1905q70 0 115 -45t45 -115t-45 -114t-115 -44t-115 44t-45 114t45 115t115 45zM582 1905q70 0 114 -45t45 -115q0 -70 -45 -114
q-44 -44 -114 -44t-115 44t-45 114t45 115t115 45z" />
    <glyph glyph-name="Yacute" unicode="&#xdd;" horiz-adv-x="1392" 
d="M883 0h-363v453l-530 981h364l346 -625l338 625h365l-520 -971v-463zM788 1559h-270l217 344l320 -113z" />
    <glyph glyph-name="Thorn" unicode="&#xde;" horiz-adv-x="1411" 
d="M508 508h235q119 0 184 60t65 171t-65 169t-184 59h-235v-459zM508 1245h250q286 0 446 -131q160 -130 160 -368t-162 -377t-444 -140h-250v-229h-365v1434h365v-189z" />
    <glyph glyph-name="germandbls" unicode="&#xdf;" horiz-adv-x="1355" 
d="M665 1536q247 0 392 -112t145 -298q0 -106 -53 -199t-143 -143q126 -35 204 -126t78 -220q0 -198 -156 -318t-413 -120h-101v252h84q117 0 181 50q63 50 63 139t-69 137q-70 47 -199 47h-37v249q107 0 163 52t56 148t-48 146t-141 50t-147 -62t-53 -176v-1032h-352v1008
q0 242 149 385q150 143 397 143z" />
    <glyph glyph-name="agrave" unicode="&#xe0;" horiz-adv-x="1228" 
d="M548 223q79 0 142 42t80 110v98h-223q-160 0 -160 -119q0 -61 41 -96t120 -35zM770 680q0 174 -236 174q-128 0 -309 -92l-100 233q267 125 503 125t362 -105t128 -294v-721h-346v127q-109 -143 -338 -143q-174 0 -276 96t-102 252t109 242q110 86 314 90h291v16z
M522 1229l-266 231l319 113l218 -344h-271z" />
    <glyph glyph-name="aacute" unicode="&#xe1;" horiz-adv-x="1228" 
d="M548 223q79 0 142 42t80 110v98h-223q-160 0 -160 -119q0 -61 41 -96t120 -35zM770 680q0 174 -236 174q-128 0 -309 -92l-100 233q267 125 503 125t362 -105t128 -294v-721h-346v127q-109 -143 -338 -143q-174 0 -276 96t-102 252t109 242q110 86 314 90h291v16z
M707 1229h-271l217 344l320 -113z" />
    <glyph glyph-name="acircumflex" unicode="&#xe2;" horiz-adv-x="1228" 
d="M548 223q79 0 142 42t80 110v98h-223q-160 0 -160 -119q0 -61 41 -96t120 -35zM770 680q0 174 -236 174q-128 0 -309 -92l-100 233q267 125 503 125t362 -105t128 -294v-721h-346v127q-109 -143 -338 -143q-174 0 -276 96t-102 252t109 242q110 86 314 90h291v16z
M494 1249h-254l231 310h283l231 -310h-254l-119 174z" />
    <glyph glyph-name="atilde" unicode="&#xe3;" horiz-adv-x="1228" 
d="M548 223q79 0 142 42t80 110v98h-223q-160 0 -160 -119q0 -61 41 -96t120 -35zM770 680q0 174 -236 174q-128 0 -309 -92l-100 233q267 125 503 125t362 -105t128 -294v-721h-346v127q-109 -143 -338 -143q-174 0 -276 96t-102 252t109 242q110 86 314 90h291v16z
M526 1360q-61 0 -61 -88h-217q0 319 215 319q67 0 141 -48t94 -48q63 0 64 86h215q0 -317 -213 -317q-72 0 -144 48t-94 48z" />
    <glyph glyph-name="adieresis" unicode="&#xe4;" horiz-adv-x="1228" 
d="M548 223q79 0 142 42t80 110v98h-223q-160 0 -160 -119q0 -61 41 -96t120 -35zM770 680q0 174 -236 174q-128 0 -309 -92l-100 233q267 125 503 125t362 -105t128 -294v-721h-346v127q-109 -143 -338 -143q-174 0 -276 96t-102 252t109 242q110 86 314 90h291v16z
M811 1257q-70 1 -115 45t-45 114t45 114q45 45 115 45t115 -45t45 -115t-45 -114t-115 -44zM416 1257q-70 1 -115 45t-45 114t45 114q45 45 115 45t114 -45t45 -115q-1 -70 -45 -114t-114 -44z" />
    <glyph glyph-name="aring" unicode="&#xe5;" horiz-adv-x="1228" 
d="M548 223q79 0 142 42t80 110v98h-223q-160 0 -160 -119q0 -61 41 -96t120 -35zM770 680q0 174 -236 174q-128 0 -309 -92l-100 233q267 125 503 125t362 -105t128 -294v-721h-346v127q-109 -143 -338 -143q-174 0 -276 96t-102 252t109 242q110 86 314 90h291v16z
M612 1528q-44 0 -76 -32t-32 -76t32 -74t76 -31q44 0 77 31q32 30 32 74t-32 76t-77 32zM612 1176q-102 0 -175 72t-72 173q0 102 72 174q73 72 175 72t175 -72t73 -174q0 -101 -73 -173t-175 -72z" />
    <glyph glyph-name="ae" unicode="&#xe6;" horiz-adv-x="1978" 
d="M860 324v6l-10 2zM545 213q156 0 231 141v127h-223q-78 -1 -122 -33t-44 -96t43 -102t115 -37zM1575 645q0 102 -59 168q-58 66 -152 66t-156 -65t-78 -169h445zM1358 1116q274 0 430 -175t141 -466h-794q20 -107 90 -165t172 -58q154 0 266 113l186 -183
q-178 -194 -489 -194t-451 231q-133 -236 -452 -235q-186 0 -294 93t-108 249t111 238t315 85h295v31q0 82 -56 128t-161 46q-158 0 -352 -92l-82 237q279 121 517 121t370 -121q135 117 346 117z" />
    <glyph glyph-name="ccedilla" unicode="&#xe7;" horiz-adv-x="1150" 
d="M819 -270q0 -96 -71.5 -153.5t-178 -57.5t-200.5 63l65 146q45 -41 92.5 -41t71 21.5t23.5 54t-25 53t-60 20.5t-83 -8l79 166q-221 27 -352 176t-131 391t159 398.5t415 156.5q164 0 291.5 -64.5t199.5 -183.5l-254 -153q-82 115 -223 114q-102 0 -166.5 -76.5
t-64.5 -202.5t63 -203t168 -77q155 0 225 125l258 -151q-119 -211 -389 -248l-51 -100q63 -16 101 -60.5t38 -105.5z" />
    <glyph glyph-name="egrave" unicode="&#xe8;" horiz-adv-x="1232" 
d="M842 647q0 100 -58.5 161.5t-151.5 61.5t-155 -60.5t-78 -162.5h443zM639.5 1116q272.5 0 416.5 -176t126 -483h-776q27 -98 94 -151.5t166 -53.5q152 0 264 113l186 -183q-178 -195 -481 -194q-268 0 -427 153.5t-159 408.5t159 410.5t431.5 155.5zM526 1229l-266 231
l320 113l217 -344h-271z" />
    <glyph glyph-name="eacute" unicode="&#xe9;" horiz-adv-x="1232" 
d="M842 647q0 100 -58.5 161.5t-151.5 61.5t-155 -60.5t-78 -162.5h443zM639.5 1116q272.5 0 416.5 -176t126 -483h-776q27 -98 94 -151.5t166 -53.5q152 0 264 113l186 -183q-178 -195 -481 -194q-268 0 -427 153.5t-159 408.5t159 410.5t431.5 155.5zM709 1229h-271
l217 344l320 -113z" />
    <glyph glyph-name="ecircumflex" unicode="&#xea;" horiz-adv-x="1232" 
d="M842 647q0 100 -58.5 161.5t-151.5 61.5t-155 -60.5t-78 -162.5h443zM639.5 1116q272.5 0 416.5 -176t126 -483h-776q27 -98 94 -151.5t166 -53.5q152 0 264 113l186 -183q-178 -195 -481 -194q-268 0 -427 153.5t-159 408.5t159 410.5t431.5 155.5zM498 1247h-254
l231 309h283l231 -309h-254l-119 174z" />
    <glyph glyph-name="edieresis" unicode="&#xeb;" horiz-adv-x="1232" 
d="M842 647q0 100 -58.5 161.5t-151.5 61.5t-155 -60.5t-78 -162.5h443zM639.5 1116q272.5 0 416.5 -176t126 -483h-776q27 -98 94 -151.5t166 -53.5q152 0 264 113l186 -183q-178 -195 -481 -194q-268 0 -427 153.5t-159 408.5t159 410.5t431.5 155.5zM815 1257
q-70 0 -115 44.5t-45 114t45 114.5t115 45t115 -45t45 -114.5t-45 -114t-115 -44.5zM419.5 1257q-69.5 0 -114.5 44.5t-45 114t45 114.5t114.5 45t115 -45t45.5 -114.5t-45.5 -114t-115 -44.5z" />
    <glyph glyph-name="igrave" unicode="&#xec;" horiz-adv-x="636" 
d="M494 0h-353v1104h353v-1104zM500 1229h-271l-266 231l320 113z" />
    <glyph glyph-name="iacute" unicode="&#xed;" horiz-adv-x="636" 
d="M494 0h-353v1104h353v-1104zM678 1460l-266 -231h-271l217 344z" />
    <glyph glyph-name="icircumflex" unicode="&#xee;" horiz-adv-x="636" 
d="M494 0h-353v1104h353v-1104zM692 1249h-254l-119 174l-118 -174h-254l231 310h283z" />
    <glyph glyph-name="idieresis" unicode="&#xef;" horiz-adv-x="636" 
d="M494 0h-353v1104h353v-1104zM518 1575q70 0 115 -45t45 -115q0 -69 -45 -113t-115 -44t-115 44t-45 114t45 114q45 45 115 45zM123 1575q70 0 115 -45t45 -115q0 -69 -45 -113t-115 -44t-115 44t-45 114t45 114q45 45 115 45z" />
    <glyph glyph-name="eth" unicode="&#xf0;" horiz-adv-x="1236" 
d="M811 475q0 89 -58 145q-59 56 -157 56t-156 -53t-57 -145q-1 -92 57 -146q58 -56 156 -56t156 54t59 145zM1188 582q0 -272 -166 -436t-426 -162q-260 0 -406 131q-145 131 -145 342t127 333t338 121q102 -1 191 -33t139 -90q-55 164 -219 322l-334 -111l-54 164l232 78
q-123 88 -256 150l237 143q188 -76 332 -188l293 98l55 -164l-200 -68q262 -285 262 -630z" />
    <glyph glyph-name="ntilde" unicode="&#xf1;" horiz-adv-x="1378" 
d="M1268 696v-696h-353v598q0 96 -52 152.5t-144 56.5t-152.5 -61.5t-70.5 -161.5v-584h-355v1104h355v-180q116 192 368 196q182 0 293 -115.5t111 -308.5zM637 1360q-61 0 -62 -88h-217q0 319 215 319q68 0 141.5 -48t94.5 -48q63 0 63 86h215q0 -317 -213 -317
q-72 0 -143 48t-94 48z" />
    <glyph glyph-name="ograve" unicode="&#xf2;" horiz-adv-x="1304" 
d="M652 836q-110 0 -178 -80t-68 -208t68 -207t178 -79t178 79t69 207q-1 128 -69 208t-178 80zM49 553q0 255 166 409t437 154t438 -154q166 -155 166 -409t-166 -410q-166 -155 -438 -155t-437 156q-166 156 -166 409zM834 1229h-271l-266 231l319 113z" />
    <glyph glyph-name="oacute" unicode="&#xf3;" horiz-adv-x="1304" 
d="M652 836q-110 0 -178 -80t-68 -208t68 -207t178 -79t178 79t69 207q-1 128 -69 208t-178 80zM49 553q0 255 166 409t437 154t438 -154q166 -155 166 -409t-166 -410q-166 -155 -438 -155t-437 156q-166 156 -166 409zM1012 1460l-267 -231h-270l217 344z" />
    <glyph glyph-name="ocircumflex" unicode="&#xf4;" horiz-adv-x="1304" 
d="M652 836q-110 0 -178 -80t-68 -208t68 -207t178 -79t178 79t69 207q-1 128 -69 208t-178 80zM49 553q0 255 166 409t437 154t438 -154q166 -155 166 -409t-166 -410q-166 -155 -438 -155t-437 156q-166 156 -166 409zM1026 1247h-254l-119 174l-118 -174h-254l231 309
h283z" />
    <glyph glyph-name="otilde" unicode="&#xf5;" horiz-adv-x="1304" 
d="M652 836q-110 0 -178 -80t-68 -208t68 -207t178 -79t178 79t69 207q-1 128 -69 208t-178 80zM49 553q0 255 166 409t437 154t438 -154q166 -155 166 -409t-166 -410q-166 -155 -438 -155t-437 156q-166 156 -166 409zM502 1591q68 0 142 -48t93 -48q63 0 64 86h215
q0 -317 -213 -317q-70 0 -144 48t-94 48q-61 0 -61 -88h-217q0 319 215 319z" />
    <glyph glyph-name="odieresis" unicode="&#xf6;" horiz-adv-x="1304" 
d="M652 836q-110 0 -178 -80t-68 -208t68 -207t178 -79t178 79t69 207q-1 128 -69 208t-178 80zM49 553q0 255 166 409t437 154t438 -154q166 -155 166 -409t-166 -410q-166 -155 -438 -155t-437 156q-166 156 -166 409zM852 1575q70 0 115 -45t45 -115q0 -69 -45 -113
t-115 -44t-115 44t-45 114t45 114q45 45 115 45zM457 1575q71 0 115 -45t44 -115q0 -69 -45 -113t-115 -44t-114 44q-45 44 -45 114t45 114q45 45 115 45z" />
    <glyph glyph-name="divide" unicode="&#xf7;" horiz-adv-x="1044" 
d="M506 465q70 0 115 -45t45 -115t-45 -115t-115 -45t-115 45t-45 115t45 115t115 45zM977 557h-909v223h909v-223zM507 1196q71 0 115 -45t44 -115t-45 -114t-115 -43q-70 0 -115 44q-45 43 -45 113t45 115t116 45z" />
    <glyph glyph-name="oslash" unicode="&#xf8;" horiz-adv-x="1304" 
d="M922 564q0 159 -111 249l-188 -577l30 -3q121 0 195 86t74 245zM383 549q0 -180 111 -264l188 577l-29 2q-121 0 -195 -87t-75 -228zM1255 553q1 -254 -165 -410t-437 -155q-55 0 -108 6l-92 -285h-146l103 318q-168 59 -265 197q-96 138 -96 329q0 254 166 409t438 154
q55 0 109 -6l86 264h145l-96 -297q168 -59 263 -196t95 -328z" />
    <glyph glyph-name="ugrave" unicode="&#xf9;" horiz-adv-x="1357" 
d="M1217 1104v-1104h-355v182q-113 -197 -358 -196q-180 0 -288 114t-107 308v696h354v-596q0 -98 50 -154t142 -56q92 1 150 74q57 73 57 187v545h355zM580 1229l-267 231l320 113l217 -344h-270z" />
    <glyph glyph-name="uacute" unicode="&#xfa;" horiz-adv-x="1357" 
d="M1217 1104v-1104h-355v182q-113 -197 -358 -196q-180 0 -288 114t-107 308v696h354v-596q0 -98 50 -154t142 -56q92 1 150 74q57 73 57 187v545h355zM762 1229h-270l217 344l319 -113z" />
    <glyph glyph-name="ucircumflex" unicode="&#xfb;" horiz-adv-x="1357" 
d="M1217 1104v-1104h-355v182q-113 -197 -358 -196q-180 0 -288 114t-107 308v696h354v-596q0 -98 50 -154t142 -56q92 1 150 74q57 73 57 187v545h355zM551 1249h-254l231 310h283l231 -310h-254l-118 174z" />
    <glyph glyph-name="udieresis" unicode="&#xfc;" horiz-adv-x="1357" 
d="M1217 1104v-1104h-355v182q-113 -197 -358 -196q-180 0 -288 114t-107 308v696h354v-596q0 -98 50 -154t142 -56q92 1 150 74q57 73 57 187v545h355zM868 1257q-70 1 -114 45t-45 114q0 70 45 114q44 45 114 45t115 -45t45 -115t-45 -114t-115 -44zM473 1257
q-70 1 -115 45t-45 114t45 114q45 45 115 45t115 -45t45 -115t-45 -114t-115 -44z" />
    <glyph glyph-name="yacute" unicode="&#xfd;" horiz-adv-x="1187" 
d="M299 -414q-176 0 -322 113l148 242q75 -59 157 -59t126 87l26 56l-459 1079h365l270 -733l240 733h352l-477 -1219q-123 -299 -426 -299zM954 1460l-266 -231h-270l217 344z" />
    <glyph glyph-name="thorn" unicode="&#xfe;" horiz-adv-x="1402" 
d="M751 268q110 0 178 81t68 208t-68.5 207t-176.5 80t-177 -80t-69 -208t67.5 -208t177.5 -80zM849 1116q220 0 362.5 -156.5t142.5 -410.5t-139.5 -407.5t-363.5 -153.5t-345 159v-544h-354v1917h354v-562q123 158 343 158z" />
    <glyph glyph-name="ydieresis" unicode="&#xff;" horiz-adv-x="1187" 
d="M299 -414q-176 0 -322 113l148 242q75 -59 157 -59t126 87l26 56l-459 1079h365l270 -733l240 733h352l-477 -1219q-123 -299 -426 -299zM795 1575q71 0 115 -45t44 -115q0 -69 -45 -113t-115 -44t-114 44q-45 44 -45 114t45 114q45 45 115 45zM399 1575q70 0 115 -45
t45 -115q0 -69 -45 -113t-115 -44q-71 0 -115 44t-44 114t44 114q44 45 115 45z" />
    <glyph glyph-name="Amacron" unicode="&#x100;" horiz-adv-x="1576" 
d="M989 541l-205 530l-209 -530h414zM1096 264h-627l-104 -264h-375l618 1434h375l604 -1434h-389zM1073 1624h-569v238h569v-238z" />
    <glyph glyph-name="amacron" unicode="&#x101;" horiz-adv-x="1228" 
d="M548 223q79 0 142 42t80 110v98h-223q-160 0 -160 -119q0 -61 41 -96t120 -35zM770 680q0 174 -236 174q-128 0 -309 -92l-100 233q267 125 503 125t362 -105t128 -294v-721h-346v127q-109 -143 -338 -143q-174 0 -276 96t-102 252t109 242q110 86 314 90h291v16z
M897 1294h-569v238h569v-238z" />
    <glyph glyph-name="Abreve" unicode="&#x102;" horiz-adv-x="1576" 
d="M989 541l-205 530l-209 -530h414zM1096 264h-627l-104 -264h-375l618 1434h375l604 -1434h-389zM788 1561q-145 0 -236 88t-99 235h221q4 -53 36 -86t78 -33t79 33q32 33 36 86h221q-8 -147 -100 -235t-236 -88z" />
    <glyph glyph-name="abreve" unicode="&#x103;" horiz-adv-x="1228" 
d="M548 223q79 0 142 42t80 110v98h-223q-160 0 -160 -119q0 -61 41 -96t120 -35zM770 680q0 174 -236 174q-128 0 -309 -92l-100 233q267 125 503 125t362 -105t128 -294v-721h-346v127q-109 -143 -338 -143q-174 0 -276 96t-102 252t109 242q110 86 314 90h291v16z
M612 1231q-145 0 -236 88t-100 235h222q4 -53 36 -86q32 -32 78 -32t79 32q32 32 36 86h221q-8 -147 -100 -235t-236 -88z" />
    <glyph glyph-name="Aogonek" unicode="&#x104;" horiz-adv-x="1576" 
d="M575 541h418l-207 530zM1395 -183q0 -54 43 -55q45 0 88 64l90 -105q-80 -137 -221 -137q-72 0 -126 41q-55 41 -55 134t99 241h-113l-104 264h-625l-106 -264h-375l618 1436h375l604 -1436h-104q-88 -129 -88 -183z" />
    <glyph glyph-name="aogonek" unicode="&#x105;" horiz-adv-x="1239" 
d="M776 473h-227q-162 0 -162 -119q0 -59 42 -95t120 -36q79 0 145 43t82 105v102zM630 1120q238 0 365 -105t129 -294v-721h-84q-90 -131 -90 -184t45 -54q45 0 88 64l91 -105q-80 -137 -222 -137q-72 0 -126 41t-54 138t98 237h-94v127q-109 -143 -340 -143
q-176 0 -278 96t-102 252t110 242q111 86 315 90h295v18q-6 172 -219 172q-147 0 -332 -92l-100 233q267 125 505 125z" />
    <glyph glyph-name="Cacute" unicode="&#x106;" horiz-adv-x="1417" 
d="M815 1446q160 0 314.5 -65.5t263.5 -176.5l-211 -250q-70 86 -167 136.5t-194 50.5q-170 0 -284.5 -120t-114.5 -298t114.5 -299t284.5 -121q90 0 187.5 45t173.5 123l213 -225q-117 -119 -275.5 -190.5t-316.5 -71.5q-324 0 -539 211t-215 523t219 520t547 208z
M1145 1790l-266 -231h-271l217 344z" />
    <glyph glyph-name="cacute" unicode="&#x107;" horiz-adv-x="1150" 
d="M623 1116q164 0 291.5 -64.5t199.5 -183.5l-254 -153q-82 115 -223 114q-102 0 -166.5 -76.5t-64.5 -202.5t63 -203t168 -77q156 0 225 125l258 -151q-68 -123 -197.5 -189.5t-304.5 -66.5q-256 0 -412.5 154.5t-156.5 407.5t159 409.5t415 156.5zM958 1460l-266 -231
h-270l217 344z" />
    <glyph glyph-name="Ccaron" unicode="&#x10c;" horiz-adv-x="1417" 
d="M815 1446q160 0 314.5 -65.5t263.5 -176.5l-211 -250q-70 86 -167 136.5t-194 50.5q-170 0 -284.5 -120t-114.5 -298t114.5 -299t284.5 -121q90 0 187.5 45t173.5 123l213 -225q-117 -119 -275.5 -190.5t-316.5 -71.5q-324 0 -539 211t-215 523t219 520t547 208z
M375 1888h276l125 -188l125 188h277l-248 -336h-307z" />
    <glyph glyph-name="ccaron" unicode="&#x10d;" horiz-adv-x="1150" 
d="M623 1116q164 0 291.5 -64.5t199.5 -183.5l-254 -153q-82 115 -223 114q-102 0 -166.5 -76.5t-64.5 -202.5t63 -203t168 -77q156 0 225 125l258 -151q-68 -123 -197.5 -189.5t-304.5 -66.5q-256 0 -412.5 154.5t-156.5 407.5t159 409.5t415 156.5zM190 1556h277l125 -188
l125 188h276l-248 -335h-307z" />
    <glyph glyph-name="Dcaron" unicode="&#x10e;" horiz-adv-x="1570" 
d="M508 1143v-852h260q168 0 276 118t107 306q0 188 -113 308t-286 120h-244zM143 1434h617q338 0 550 -199t212 -517t-215 -518t-562 -200h-602v1434zM324 1888h276l125 -188l125 188h276l-247 -336h-308z" />
    <glyph glyph-name="dcaron" unicode="&#x10f;" horiz-adv-x="1609" 
d="M653 260q111 0 179 80t67 208q0 128 -68 208q-69 80 -179 80t-178 -79t-66 -208q0 -129 67 -209t178 -80zM1525 1386q73 0 121 -45t48 -117t-45 -141l-150 -217h-168l92 219q-67 45 -67 127t48 128t121 46zM899 1520h354v-1520h-354v145q-121 -159 -343 -159t-363 158
t-141 412q0 255 138 409q140 153 364 153t345 -160v562z" />
    <glyph glyph-name="Dcroat" unicode="&#x110;" horiz-adv-x="1570" 
d="M508 1143v-852h260q168 0 276 118t107 306q0 188 -113 308t-286 120h-244zM143 1434h617q338 0 550 -199t212 -517t-215 -518t-562 -200h-602v1434zM1018 1624h-569v238h569v-238z" />
    <glyph glyph-name="dcroat" unicode="&#x111;" horiz-adv-x="1404" 
d="M653 260q111 0 179 80t67 208q0 128 -68 208q-69 80 -179 80t-178 -79t-66 -208q0 -129 67 -209t178 -80zM1386 1219h-133v-1219h-354v145q-121 -159 -343 -159t-363 158t-141 412q0 255 138 409q140 153 364 153t345 -160v261h-174v182h174v119h354v-119h133v-182z" />
    <glyph glyph-name="Emacron" unicode="&#x112;" horiz-adv-x="1380" 
d="M1266 1147h-758v-285h684v-287h-684v-288h780v-287h-1145v1434h1123v-287zM993 1624h-569v238h569v-238z" />
    <glyph glyph-name="emacron" unicode="&#x113;" horiz-adv-x="1232" 
d="M842 647q0 100 -58.5 161.5t-151.5 61.5t-155 -60.5t-78 -162.5h443zM639.5 1116q272.5 0 416.5 -176t126 -483h-776q27 -98 94 -151.5t166 -53.5q152 0 264 113l186 -183q-178 -195 -481 -194q-268 0 -427 153.5t-159 408.5t159 410.5t431.5 155.5zM901 1294h-569v238
h569v-238z" />
    <glyph glyph-name="Edotaccent" unicode="&#x116;" horiz-adv-x="1380" 
d="M1266 1147h-758v-285h684v-287h-684v-288h780v-287h-1145v1434h1123v-287zM709 1937q82 0 134 -52t52 -134t-52 -135t-134 -53t-134.5 53t-52.5 135t52.5 134t134.5 52z" />
    <glyph glyph-name="edotaccent" unicode="&#x117;" horiz-adv-x="1232" 
d="M842 647q0 100 -58.5 161.5t-151.5 61.5t-155 -60.5t-78 -162.5h443zM639.5 1116q272.5 0 416.5 -176t126 -483h-776q27 -98 94 -151.5t166 -53.5q152 0 264 113l186 -183q-178 -195 -481 -194q-268 0 -427 153.5t-159 408.5t159 410.5t431.5 155.5zM616.5 1233
q-81.5 0 -134 53t-52.5 135t52.5 134.5t134 52.5t134 -52.5t52.5 -134.5t-52.5 -135t-134 -53z" />
    <glyph glyph-name="Eogonek" unicode="&#x118;" horiz-adv-x="1388" 
d="M1276 1155h-768v-293h694v-278h-694v-305h788v-279h-145q-88 -127 -88 -182t43 -56q45 0 88 64l92 -105q-84 -137 -223 -137q-72 0 -125 41t-53 136t96 239h-838v1434h1133v-279z" />
    <glyph glyph-name="eogonek" unicode="&#x119;" horiz-adv-x="1232" 
d="M842 647q0 99 -58 161t-152 62t-156 -61t-77 -162h443zM666 250q150 0 264 115l186 -183q-223 -256 -223 -368q0 -51 43 -52q43 0 86 64l90 -105q-80 -137 -219 -137q-72 0 -126 42t-54 130q0 121 114 279q-92 -47 -196 -47q-264 0 -422 154t-158 407t155 409
q154 156 428 158t421 -175t127 -484h-774q27 -98 93 -153q67 -54 165 -54z" />
    <glyph glyph-name="Ecaron" unicode="&#x11a;" horiz-adv-x="1380" 
d="M1266 1147h-758v-285h684v-287h-684v-288h780v-287h-1145v1434h1123v-287zM299 1888h276l125 -188l125 188h277l-248 -336h-307z" />
    <glyph glyph-name="ecaron" unicode="&#x11b;" horiz-adv-x="1232" 
d="M842 647q0 100 -58.5 161.5t-151.5 61.5t-155 -60.5t-78 -162.5h443zM639.5 1116q272.5 0 416.5 -176t126 -483h-776q27 -98 94 -151.5t166 -53.5q152 0 264 113l186 -183q-178 -195 -481 -194q-268 0 -427 153.5t-159 408.5t159 410.5t431.5 155.5zM453 1221l-248 335
h276l125 -188l125 188h277l-248 -335h-307z" />
    <glyph glyph-name="Gbreve" unicode="&#x11e;" horiz-adv-x="1521" 
d="M1096 729h315v-559q-117 -82 -281.5 -134t-314.5 -52q-328 0 -547 210t-219 522t225.5 521t565.5 209q160 0 317.5 -57.5t267.5 -155.5l-204 -248q-78 72 -180.5 114t-202.5 42q-176 0 -296 -122t-120 -303t121 -304t299 -123q115 0 254 69v371zM802.5 1561
q-145.5 0 -236.5 88t-99 235h221q4 -53 36 -86t79 -33t78.5 33t36.5 86h221q-8 -147 -99.5 -235t-237 -88z" />
    <glyph glyph-name="gbreve" unicode="&#x11f;" horiz-adv-x="1325" 
d="M613 315q103 0 167 75t64 195q0 121 -64 195t-166 74q-104 0 -169 -75t-65 -195t66 -194q64 -75 167 -75zM1196 1104v-1004q0 -233 -165 -372q-165 -140 -436 -140t-489 146l123 239q160 -111 342 -110q127 0 200 61t73 166v117q-113 -147 -321 -147t-340 146
q-132 148 -132 384t129 382q129 144 339 145t325 -148v135h352zM664 1231q-145 0 -237 88q-91 88 -99 235h221q4 -53 36 -86q32 -32 79 -32q46 0 78 32t36 86h221q-8 -147 -99 -235t-236 -88z" />
    <glyph glyph-name="Gcommaaccent" unicode="&#x122;" horiz-adv-x="1521" 
d="M814 -84q73 0 121 -45t48 -119t-45 -139l-150 -217h-167l92 217q-68 47 -68 128t48 128t121 47zM1096 729h315v-559q-117 -82 -281.5 -134t-314.5 -52q-328 0 -547 209.5t-219 522t225.5 521.5t565.5 209q160 0 317.5 -57.5t267.5 -155.5l-204 -248q-78 72 -180.5 114
t-202.5 42q-176 0 -296 -122t-120 -303t121 -304t299 -123q115 0 254 69v371z" />
    <glyph glyph-name="gcommaaccent" unicode="&#x123;" horiz-adv-x="1325" 
d="M613 315q103 0 167 75t64 195q0 121 -64 195t-166 74q-104 0 -169 -75t-65 -195t66 -194q64 -75 167 -75zM1196 1104v-1004q0 -233 -165 -372q-165 -140 -436 -140t-489 146l123 239q160 -111 342 -110q127 0 200 61t73 166v117q-113 -147 -321 -147t-340 146
q-132 148 -132 384t129 382q129 144 339 145t325 -148v135h352zM650 1188q-73 0 -121 45t-48 119t45 139l150 217h168l-92 -217q68 -47 68 -128t-49 -128q-48 -47 -121 -47z" />
    <glyph glyph-name="hbar" unicode="&#x127;" horiz-adv-x="1521" 
d="M1280 696v-696h-354v598q0 96 -52.5 152.5t-148.5 56.5t-157.5 -74t-61.5 -188v-545h-354v1180h-162v192h162v148h354v-148h242v-192h-242v-258q117 194 371 198q182 0 292.5 -115.5t110.5 -308.5z" />
    <glyph glyph-name="Itilde" unicode="&#x128;" horiz-adv-x="651" 
d="M508 0h-365v1434h365v-1434zM176 1921q68 0 142 -48t94 -48q63 0 63 86h215q0 -317 -213 -318q-71 0 -143 48t-94 49q-61 0 -62 -88h-217q0 319 215 319z" />
    <glyph glyph-name="itilde" unicode="&#x129;" horiz-adv-x="636" 
d="M494 0h-353v1104h353v-1104zM168 1591q68 0 142 -48t93 -48q63 0 64 86h215q0 -317 -213 -317q-71 0 -143 48t-95 48q-61 0 -61 -88h-217q0 319 215 319z" />
    <glyph glyph-name="Imacron" unicode="&#x12a;" horiz-adv-x="651" 
d="M508 0h-365v1434h365v-1434zM610 1624h-569v238h569v-238z" />
    <glyph glyph-name="imacron" unicode="&#x12b;" horiz-adv-x="636" 
d="M494 0h-353v1104h353v-1104zM602 1294h-569v238h569v-238z" />
    <glyph glyph-name="Iogonek" unicode="&#x12e;" horiz-adv-x="651" 
d="M342 -416q-72 0 -126 41t-54 136t96 239h-115v1436h365v-1436h-78q-90 -131 -90 -184t43 -54q47 1 90 64l90 -105q-80 -137 -221 -137z" />
    <glyph glyph-name="iogonek" unicode="&#x12f;" horiz-adv-x="593" 
d="M475 0h-82q-90 -131 -90 -184t45 -54q45 0 88 64l90 -105q-80 -137 -221 -137q-74 0 -127 41t-53 136t96 239h-98v1104h352v-1104zM299 1608q82 0 135 -52t53 -136q0 -83 -53 -135t-135 -52t-135 52t-53 134q0 81 53 135t135 54z" />
    <glyph glyph-name="Idotaccent" unicode="&#x130;" horiz-adv-x="651" 
d="M508 0h-365v1434h365v-1434zM326 1937q82 0 134 -52t52 -134t-52 -135t-134 -53t-135 53q-52 53 -52 135t52 134q53 52 135 52z" />
    <glyph glyph-name="dotlessi" unicode="&#x131;" horiz-adv-x="636" 
d="M494 0h-353v1104h353v-1104z" />
    <glyph glyph-name="IJ" unicode="&#x132;" horiz-adv-x="1746" 
d="M508 0h-365v1434h365v-1434zM1630 1436v-971q0 -227 -132 -354t-363 -127q-293 0 -494 229l168 244q154 -160 301 -160q154 0 154 176v668h-492v295h858z" />
    <glyph glyph-name="ij" unicode="&#x133;" horiz-adv-x="1290" 
d="M1137 1104v-1137q0 -180 -113 -280q-113 -99 -282 -99t-283 72l90 248q66 -39 121 -40q114 -2 112 122v1114h355zM494 0h-353v1104h353v-1104zM958 1608q88 0 144 -52t57 -136q0 -83 -56 -135q-57 -52 -145 -52t-144 52t-56 134q0 81 56 135t144 54zM319 1608
q83 0 135 -52t52 -135q0 -82 -52 -135t-134 -53t-135 53q-52 53 -52 135q0 83 52 135t134 52z" />
    <glyph glyph-name="Jcircumflex" unicode="&#x134;" horiz-adv-x="1097" 
d="M979 1436v-971q0 -227 -132 -354t-364 -127q-293 0 -493 229l168 244q154 -160 301 -160q154 0 153 176v668h-491v295h858zM918 1579h-254l-119 174l-119 -174h-254l231 309h283z" />
    <glyph glyph-name="jcircumflex" unicode="&#x135;" horiz-adv-x="630" 
d="M145 1104h355v-1145q0 -174 -106 -273q-106 -98 -279 -96q-174 2 -299 70l82 244q68 -39 131 -39q118 -4 116 145v1094zM682 1249h-254l-119 174l-119 -174h-253l231 310h283z" />
    <glyph glyph-name="Kcommaaccent" unicode="&#x136;" horiz-adv-x="1529" 
d="M757 -84q73 0 121 -45t48 -119t-45 -139l-150 -217h-168l92 217q-68 47 -67.5 128t48.5 128t121 47zM508 0h-365v1434h365v-621l549 621h422l-533 -594l567 -840h-436l-379 563l-190 -211v-352z" />
    <glyph glyph-name="kcedilla" unicode="&#x137;" horiz-adv-x="1290" 
d="M506 0h-94l-54 -100q61 -16 100.5 -60.5t39.5 -101.5q0 -98 -70 -157.5t-179 -59.5t-200 63l64 146q43 -39 90 -39t72.5 22.5t24.5 58.5t-26.5 57t-65.5 21t-73 -6l78 156h-61v1520h354v-803l364 387h402l-406 -424l418 -680h-420l-239 426l-119 -125v-301z" />
    <glyph glyph-name="kgreenlandic" unicode="&#x138;" horiz-adv-x="1277" 
d="M494 0h-353v1104h353v-387l364 387h402l-406 -424l418 -680h-420l-240 426l-118 -125v-301z" />
    <glyph glyph-name="Lacute" unicode="&#x139;" horiz-adv-x="1146" 
d="M508 305h608v-305h-973v1434h365v-1129zM678 1790l-266 -231h-271l217 344z" />
    <glyph glyph-name="lacute" unicode="&#x13a;" horiz-adv-x="657" 
d="M506 0h-354v1520h354v-1520zM688 1876l-266 -231h-270l217 344z" />
    <glyph glyph-name="Lcommaaccent" unicode="&#x13b;" horiz-adv-x="1146" 
d="M607 -84q73 0 121 -45t48 -119t-45 -139l-149 -217h-168l92 217q-68 47 -68 128t48 128t121 47zM1116 305v-305h-973v1434h365v-1129h608z" />
    <glyph glyph-name="lcommaaccent" unicode="&#x13c;" horiz-adv-x="657" 
d="M343 -84q73 0 121 -45t48 -119t-45 -139l-150 -217h-167l92 217q-68 47 -68 128t48 128t121 47zM506 0h-354v1520h354v-1520z" />
    <glyph glyph-name="Lcaron" unicode="&#x13d;" horiz-adv-x="1146" 
d="M923 1370q73 0 121 -45t48 -117t-45 -141l-150 -217h-168l92 219q-68 45 -67.5 126t48.5 128t121 47zM1116 305v-305h-973v1434h365v-1129h608z" />
    <glyph glyph-name="lcaron" unicode="&#x13e;" horiz-adv-x="831" 
d="M747 1386q73 0 120.5 -45t47.5 -116.5t-45 -141.5l-149 -217h-168l92 219q-68 45 -67.5 126.5t48.5 128t121 46.5zM152 1520h354v-1520h-354v1520z" />
    <glyph glyph-name="Ldot" unicode="&#x13f;" horiz-adv-x="1146" 
d="M847 1151q73 0 121 -47t48 -121t-48 -121t-121 -47t-120 47t-47 121t47 121t120 47zM508 305h608v-305h-973v1434h365v-1129z" />
    <glyph glyph-name="ldot" unicode="&#x140;" horiz-adv-x="804" 
d="M710 809q75 0 122 -47t47 -123t-47.5 -123t-122 -47t-121.5 47t-47 123t47 123t122 47zM506 0h-354v1520h354v-1520z" />
    <glyph glyph-name="Lslash" unicode="&#x141;" horiz-adv-x="1187" 
d="M1155 305v-305h-973v682l-149 -43l-60 213l209 61v521h365v-416l295 86l59 -215l-354 -103v-481h608z" />
    <glyph glyph-name="lslash" unicode="&#x142;" horiz-adv-x="702" 
d="M549 0h-354v721l-203 -57l-62 213l265 75v568h354v-465l168 49l59 -215l-227 -66v-823z" />
    <glyph glyph-name="Nacute" unicode="&#x143;" horiz-adv-x="1609" 
d="M1466 0h-321l-660 883v-883h-342v1434h322l661 -885v885h340v-1434zM1165 1790l-266 -231h-270l217 344z" />
    <glyph glyph-name="nacute" unicode="&#x144;" horiz-adv-x="1378" 
d="M1268 696v-696h-353v598q0 96 -52 152.5t-144 56.5t-152.5 -61.5t-70.5 -161.5v-584h-355v1104h355v-180q116 192 368 196q182 0 293 -115.5t111 -308.5zM817 1229h-270l217 344l319 -113z" />
    <glyph glyph-name="Ncommaaccent" unicode="&#x145;" horiz-adv-x="1609" 
d="M818 -84q73 0 121 -45t48 -119t-45 -139l-149 -217h-168l92 217q-68 47 -68 128t48 128t121 47zM1466 1434v-1434h-321l-660 883v-883h-342v1434h322l661 -885v885h340z" />
    <glyph glyph-name="ncommaaccent" unicode="&#x146;" horiz-adv-x="1378" 
d="M712 -84q73 0 121 -45t48 -119t-45 -139l-150 -217h-168l92 217q-68 47 -67.5 128t48.5 128t121 47zM1268 696v-696h-353v598q0 96 -52 152.5t-144 56.5t-152.5 -61.5t-70.5 -161.5v-584h-355v1104h355v-180q116 192 368 196q182 0 293 -115.5t111 -308.5z" />
    <glyph glyph-name="Ncaron" unicode="&#x147;" horiz-adv-x="1609" 
d="M1466 0h-321l-660 883v-883h-342v1434h322l661 -885v885h340v-1434zM395 1888h277l125 -188l125 188h276l-248 -336h-307z" />
    <glyph glyph-name="ncaron" unicode="&#x148;" horiz-adv-x="1378" 
d="M1268 696v-696h-353v598q0 96 -52 152.5t-144 56.5t-152.5 -61.5t-70.5 -161.5v-584h-355v1104h355v-180q116 192 368 196q182 0 293 -115.5t111 -308.5zM561 1223l-248 336h277l125 -189l125 189h276l-248 -336h-307z" />
    <glyph glyph-name="Omacron" unicode="&#x14c;" horiz-adv-x="1648" 
d="M826 1141q-168 0 -286 -122t-118 -302t120 -304t286 -124t281 124q116 124 116 304t-116 302t-283 122zM824 1446q333 0 554 -208t221 -520t-222 -523t-554 -211t-553 210t-221 524t221 521t554 207zM1094 1624h-570v238h570v-238z" />
    <glyph glyph-name="omacron" unicode="&#x14d;" horiz-adv-x="1304" 
d="M652 836q-110 0 -178 -80t-68 -208t68 -207t178 -79t178 79t69 207q-1 128 -69 208t-178 80zM49 553q0 255 166 409t437 154t438 -154q166 -155 166 -409t-166 -410q-166 -155 -438 -155t-437 156q-166 156 -166 409zM936 1294h-569v238h569v-238z" />
    <glyph glyph-name="Ohungarumlaut" unicode="&#x150;" horiz-adv-x="1648" 
d="M826 1141q-168 0 -286 -122t-118 -302t120 -304t286 -124t281 124q116 124 116 304t-116 302t-283 122zM824 1446q333 0 554 -208t221 -520t-222 -523t-554 -211t-553 210t-221 524t221 521t554 207zM1292 1808l-184 -252h-258l174 351zM895 1808l-184 -252h-258l174 351
z" />
    <glyph glyph-name="ohungarumlaut" unicode="&#x151;" horiz-adv-x="1304" 
d="M652 836q-110 0 -178 -80t-68 -208t68 -207t178 -79t178 79t69 207q-1 128 -69 208t-178 80zM49 553q0 255 166 409t437 154t438 -154q166 -155 166 -409t-166 -410q-166 -155 -438 -155t-437 156q-166 156 -166 409zM1137 1477l-185 -252h-258l174 350zM739 1477
l-184 -252h-258l174 350z" />
    <glyph glyph-name="OE" unicode="&#x152;" horiz-adv-x="2279" 
d="M1042 1135h-219q-172 0 -286.5 -121t-114.5 -301.5t114.5 -300t286.5 -119.5l219 2v840zM2187 287v-287h-1366q-330 0 -551 204t-221 511t220 514t552 207h1346v-289h-760v-285h684v-284h-684v-291h780z" />
    <glyph glyph-name="oe" unicode="&#x153;" horiz-adv-x="2086" 
d="M652 262q110 0 178 79t69 207q0 128 -69 208q-68 80 -178 80t-178 -80t-68 -208t68 -207t178 -79zM1683 645q0 102 -60 168q-61 66 -155 66t-156 -65t-79 -169h450zM1469 1116q269 0 425 -175t142 -466h-801q23 -106 93 -165q71 -58 175 -58q152 0 269 113l186 -183
q-182 -195 -485 -194q-270 0 -406 184q-141 -184 -413 -184t-439 156q-166 156 -166 409q0 254 166 409q166 154 439 154t415 -186q131 186 400 186z" />
    <glyph glyph-name="Racute" unicode="&#x154;" horiz-adv-x="1482" 
d="M508 690h276q119 0 184.5 59.5t65.5 171.5t-65.5 169t-184.5 57h-276v-457zM508 403v-403h-365v1434h641q285 0 440.5 -130t155.5 -370q0 -332 -260 -461l301 -473h-413l-213 403h-287zM838 1559h-271l217 344l320 -113z" />
    <glyph glyph-name="racute" unicode="&#x155;" horiz-adv-x="874" 
d="M496 1104v-186q117 199 358 202v-319q-152 14 -248 -50.5t-110 -183.5v-567h-355v1104h355zM553 1229h-270l217 344l319 -113z" />
    <glyph glyph-name="Rcommaaccent" unicode="&#x156;" horiz-adv-x="1482" 
d="M749 -84q73 0 121 -45t48 -119t-46 -139l-149 -217h-168l92 217q-68 47 -67.5 128t48.5 128t121 47zM508 690h276q119 0 184.5 59.5t65.5 171.5t-65.5 169t-184.5 57h-276v-457zM508 403v-403h-365v1434h641q285 0 440.5 -130t155.5 -370q0 -332 -260 -461l301 -473h-413
l-213 403h-287z" />
    <glyph glyph-name="rcommaaccent" unicode="&#x157;" horiz-adv-x="874" 
d="M321 -84q73 0 120.5 -45t47.5 -119t-45 -139l-149 -217h-168l92 217q-68 47 -67.5 128t48.5 128t121 47zM496 1104v-186q117 199 358 202v-319q-152 14 -248 -50.5t-110 -183.5v-567h-355v1104h355z" />
    <glyph glyph-name="Rcaron" unicode="&#x158;" horiz-adv-x="1482" 
d="M508 690h276q119 0 184.5 59.5t65.5 171.5t-65.5 169t-184.5 57h-276v-457zM508 403v-403h-365v1434h641q285 0 440.5 -130t155.5 -370q0 -332 -260 -461l301 -473h-413l-213 403h-287zM582 1552l-248 336h276l125 -188l125 188h277l-248 -336h-307z" />
    <glyph glyph-name="rcaron" unicode="&#x159;" horiz-adv-x="874" 
d="M496 1104v-186q117 199 358 202v-319q-152 14 -248 -50.5t-110 -183.5v-567h-355v1104h355zM297 1223l-248 336h277l125 -189l124 189h277l-248 -336h-307z" />
    <glyph glyph-name="Sacute" unicode="&#x15a;" horiz-adv-x="1318" 
d="M694 1450q322 0 566 -160l-138 -284q-113 66 -241.5 107.5t-216.5 41.5q-158 0 -158 -104q0 -68 78 -109t189.5 -70.5t223 -71.5t189.5 -136.5t78 -237.5q0 -207 -162 -322.5t-412 -115.5q-178 0 -352 61.5t-303 167.5l141 281q109 -94 256.5 -154.5t248.5 -60.5
q200 0 200 125q0 59 -56.5 99t-140.5 59.5t-182.5 52t-182 71.5t-140 124t-56.5 204q0 197 156.5 314.5t414.5 117.5zM1055 1790l-267 -231h-270l217 344z" />
    <glyph glyph-name="sacute" unicode="&#x15b;" horiz-adv-x="1050" 
d="M559.5 1120q221.5 0 431.5 -125l-121 -229q-205 111 -348 111q-109 0 -108 -76q0 -41 59 -68.5t145.5 -50.5t171 -56.5t144 -107.5t59.5 -180q0 -166 -129 -259t-336 -93q-293 0 -495 155l112 226q195 -137 392 -138q121 0 120 76q0 43 -58 72t-142 51.5t-168 56
t-142.5 105.5t-58.5 180q0 166 125 258t346.5 92zM903 1460l-266 -231h-270l217 344z" />
    <glyph glyph-name="Scedilla" unicode="&#x15e;" horiz-adv-x="1318" 
d="M1264 426q0 -180 -124 -291.5t-325 -138.5l-51 -100q63 -16 101 -60.5t38 -105.5q0 -96 -71.5 -153.5t-178 -57.5t-200.5 63l65 146q45 -41 92 -41t71 21.5t24 54t-25 53t-60 20.5t-83 -8l77 162q-162 14 -313 73.5t-266 153.5l141 281q109 -94 256.5 -154.5t248.5 -60.5
q200 0 200 125q0 59 -56.5 99t-140.5 59.5t-182.5 52t-182 71.5t-140 124t-56.5 204q0 197 156.5 314.5t414.5 117.5q322 0 566 -160l-138 -284q-113 66 -241.5 107.5t-216.5 41.5q-158 0 -158 -104q0 -68 78 -109t189.5 -70.5t223 -71.5t189.5 -136.5t78 -237.5z" />
    <glyph glyph-name="scedilla" unicode="&#x15f;" horiz-adv-x="1050" 
d="M414 801q0 -41 59 -68.5t145.5 -50.5t171 -56.5t144 -107.5t59.5 -196t-90 -209.5t-244 -116.5l-51 -100q63 -16 101.5 -60.5t38.5 -105.5q0 -96 -72 -153.5t-178 -57.5t-201 63l65 146q44 -41 92 -41t71.5 21.5t23.5 54t-24.5 53t-59.5 20.5t-84 -8l78 160
q-252 18 -426 153l112 226q195 -137 392 -138q121 0 120 76q0 43 -58 72t-142 51.5t-168 56t-142.5 105.5t-58.5 180q0 166 125 258t347 92t431 -125l-121 -229q-205 111 -348 111q-108 0 -108 -76z" />
    <glyph glyph-name="Scaron" unicode="&#x160;" horiz-adv-x="1318" 
d="M694 1450q322 0 566 -160l-138 -284q-113 66 -241.5 107.5t-216.5 41.5q-158 0 -158 -104q0 -68 78 -109t189.5 -70.5t223 -71.5t189.5 -136.5t78 -237.5q0 -207 -162 -322.5t-412 -115.5q-178 0 -352 61.5t-303 167.5l141 281q109 -94 256.5 -154.5t248.5 -60.5
q200 0 200 125q0 59 -56.5 99t-140.5 59.5t-182.5 52t-182 71.5t-140 124t-56.5 204q0 197 156.5 314.5t414.5 117.5zM285 1888h276l125 -188l125 188h276l-247 -336h-308z" />
    <glyph glyph-name="scaron" unicode="&#x161;" horiz-adv-x="1050" 
d="M559.5 1120q221.5 0 431.5 -125l-121 -229q-205 111 -348 111q-109 0 -108 -76q0 -41 59 -68.5t145.5 -50.5t171 -56.5t144 -107.5t59.5 -180q0 -166 -129 -259t-336 -93q-293 0 -495 155l112 226q195 -137 392 -138q121 0 120 76q0 43 -58 72t-142 51.5t-168 56
t-142.5 105.5t-58.5 180q0 166 125 258t346.5 92zM135 1559h277l125 -189l125 189h276l-248 -336h-307z" />
    <glyph glyph-name="Tcedilla" unicode="&#x162;" horiz-adv-x="1251" 
d="M825 -270q0 -96 -71.5 -153.5t-178 -57.5t-200.5 63l65 146q45 -41 92.5 -41t71 21.5t23.5 54t-24.5 53t-60 20.5t-83.5 -8l82 172h-99v1141h-428v295h1225v-295h-432v-1141h-68l-53 -104q63 -16 101 -60.5t38 -105.5z" />
    <glyph glyph-name="tcedilla" unicode="&#x163;" horiz-adv-x="890" 
d="M545 389q0 -125 102 -121q49 0 137 37l70 -246q-88 -51 -188 -65l-50 -98q63 -16 101.5 -60.5t38.5 -105.5q0 -96 -72 -153.5t-178 -57.5t-201 63l66 146q45 -41 92 -41t70.5 21.5t23.5 54t-24.5 53t-59.5 20.5t-84 -8l78 164q-127 25 -200.5 113t-73.5 229v487h-154v232
h154v307h352v-305h289v-234h-289v-432z" />
    <glyph glyph-name="Tcaron" unicode="&#x164;" horiz-adv-x="1251" 
d="M1239 1141h-432v-1141h-365v1141h-428v295h1225v-295zM240 1888h276l125 -188l125 188h276l-247 -336h-308z" />
    <glyph glyph-name="tcaron" unicode="&#x165;" horiz-adv-x="876" 
d="M545 389q0 -125 102 -121q49 0 137 37l70 -246q-129 -76 -294 -75.5t-266 91.5t-101 259v487h-154v232h154v307h352v-305h289v-234h-289v-432zM822 1706q73 0 121 -45t48 -117t-45 -141l-149 -217h-168l92 219q-68 45 -68 126t48 128t121 47z" />
    <glyph glyph-name="Umacron" unicode="&#x16a;" horiz-adv-x="1552" 
d="M1434 1434v-832q0 -286 -176 -452t-479 -166q-302 0 -481 167t-179 451v832h364v-832q0 -143 83 -228t215 -85t211 84t79 229v832h363zM1061 1624h-569v238h569v-238z" />
    <glyph glyph-name="umacron" unicode="&#x16b;" horiz-adv-x="1357" 
d="M1217 1104v-1104h-355v182q-113 -197 -358 -196q-180 0 -288 114t-107 308v696h354v-596q0 -98 50 -154t142 -56q92 1 150 74q57 73 57 187v545h355zM954 1294h-569v238h569v-238z" />
    <glyph glyph-name="Uring" unicode="&#x16e;" horiz-adv-x="1552" 
d="M1434 1434v-832q0 -286 -176 -452t-479 -166q-302 0 -481 167t-179 451v832h364v-832q0 -143 83 -228t215 -85t211 84t79 229v832h363zM776 1858q-45 0 -77 -32q-31 -32 -31 -76t32 -75t76 -31q45 0 77 32q32 30 32 74t-32 76t-77 32zM776 1997q102 0 175 -72t73 -174
t-73 -174t-175 -72t-175 72t-73 174t73 174t175 72z" />
    <glyph glyph-name="uring" unicode="&#x16f;" horiz-adv-x="1357" 
d="M1217 1104v-1104h-355v182q-113 -197 -358 -196q-180 0 -288 114t-107 308v696h354v-596q0 -98 50 -154t142 -56q92 1 150 74q57 73 57 187v545h355zM670 1528q-45 0 -77 -32t-32 -76t32 -74t77 -31q44 0 76 31q32 30 32 74t-32 76t-76 32zM670 1176q-102 0 -175 72
t-73 173q0 102 73 174t175 72t175 -72t73 -174q0 -101 -73 -173t-175 -72z" />
    <glyph glyph-name="Uhungarumlaut" unicode="&#x170;" horiz-adv-x="1552" 
d="M1434 1434v-832q0 -286 -176 -452t-479 -166q-302 0 -481 167t-179 451v832h364v-832q0 -143 83 -228t215 -85t211 84t79 229v832h363zM1262 1808l-185 -252h-258l174 351zM864 1808l-184 -252h-258l174 351z" />
    <glyph glyph-name="uhungarumlaut" unicode="&#x171;" horiz-adv-x="1357" 
d="M1217 1104v-1104h-355v182q-113 -197 -358 -196q-180 0 -288 114t-107 308v696h354v-596q0 -98 50 -154t142 -56q92 1 150 74q57 73 57 187v545h355zM711 1227l174 350l268 -98l-184 -252h-258zM571 1227h-258l174 350l269 -98z" />
    <glyph glyph-name="Uogonek" unicode="&#x172;" horiz-adv-x="1554" 
d="M1436 1436v-834q0 -217 -106 -369t-296 -213q-102 -150 -102 -204t43 -54q45 0 88 64l90 -105q-80 -137 -221 -137q-72 0 -126 41t-54 136t88 225l-60 -2q-303 0 -482 167t-179 451v834h362v-834q0 -143 84 -228t216 -85t211 84t79 229v834h365z" />
    <glyph glyph-name="uogonek" unicode="&#x173;" horiz-adv-x="1351" 
d="M1225 0h-86q-90 -127 -90 -182t45 -56q45 0 88 64l90 -105q-80 -137 -221 -137q-72 0 -126 41q-55 41 -55 136t97 239h-95v182q-115 -197 -362 -196q-182 0 -291 114t-108 308v696h352v-596q0 -98 51 -154t143 -56q92 1 151 67q58 66 64 172v567h353v-1104z" />
    <glyph glyph-name="Wcircumflex" unicode="&#x174;" horiz-adv-x="2213" 
d="M1755 0h-375l-266 991l-270 -991h-377l-469 1434h389l281 -1055l274 1055h356l281 -1055l276 1055h373zM1425 1579h-254l-118 174l-119 -174h-254l231 309h283z" />
    <glyph glyph-name="wcircumflex" unicode="&#x175;" horiz-adv-x="1918" 
d="M1530 0h-350l-217 700l-218 -700h-352l-403 1104h360l228 -764l221 764h338l227 -764l223 764h346zM1333 1249h-254l-118 174l-119 -174h-254l231 310h283z" />
    <glyph glyph-name="Ycircumflex" unicode="&#x176;" horiz-adv-x="1392" 
d="M883 0h-363v453l-530 981h364l346 -625l338 625h365l-520 -971v-463zM578 1579h-254l231 309h283l231 -309h-254l-119 174z" />
    <glyph glyph-name="ycircumflex" unicode="&#x177;" horiz-adv-x="1187" 
d="M299 -414q-176 0 -322 113l148 242q75 -59 157 -59t126 87l26 56l-459 1079h365l270 -733l240 733h352l-477 -1219q-123 -299 -426 -299zM969 1249h-254l-119 174l-119 -174h-254l232 310h282z" />
    <glyph glyph-name="Ydieresis" unicode="&#x178;" horiz-adv-x="1392" 
d="M883 0h-363v453l-530 981h364l346 -625l338 625h365l-520 -971v-463zM895 1587q-70 0 -115 44t-45 114t45 115t115 45t115 -45t45 -115t-45 -114t-115 -44zM500 1587q-70 0 -115 44t-45 114t45 115t115 45t114 -45t45 -115q-1 -70 -45 -114t-114 -44z" />
    <glyph glyph-name="Zacute" unicode="&#x179;" horiz-adv-x="1382" 
d="M1323 289v-289h-1266v233l768 912h-741v289h1227v-234l-766 -911h778zM1081 1790l-266 -231h-270l217 344z" />
    <glyph glyph-name="zacute" unicode="&#x17a;" horiz-adv-x="1132" 
d="M1073 266v-266h-1003v213l542 625h-522v266h965v-213l-541 -625h559zM926 1460l-267 -231h-270l217 344z" />
    <glyph glyph-name="Zdotaccent" unicode="&#x17b;" horiz-adv-x="1382" 
d="M1323 289v-289h-1266v233l768 912h-741v289h1227v-234l-766 -911h778zM723 1937q82 0 134 -52t52 -134t-52 -135t-134 -53t-134 53t-52 135t52 134t134 52z" />
    <glyph glyph-name="zdotaccent" unicode="&#x17c;" horiz-adv-x="1132" 
d="M1073 266v-266h-1003v213l542 625h-522v266h965v-213l-541 -625h559zM567 1608q82 0 134 -52q53 -52 53 -135q0 -82 -52 -135t-135 -53q-82 0 -134 53t-52 135q0 83 52 135t134 52z" />
    <glyph glyph-name="Zcaron" unicode="&#x17d;" horiz-adv-x="1382" 
d="M1323 289v-289h-1266v233l768 912h-741v289h1227v-234l-766 -911h778zM311 1888h277l125 -188l125 188h276l-248 -336h-307z" />
    <glyph glyph-name="zcaron" unicode="&#x17e;" horiz-adv-x="1132" 
d="M1073 266v-266h-1003v213l542 625h-522v266h965v-213l-541 -625h559zM156 1556h276l125 -188l125 188h276l-247 -335h-308z" />
    <glyph glyph-name="florin" unicode="&#x192;" horiz-adv-x="839" 
d="M872 1219q-56 43 -122 46t-107 -35t-49 -104l-21 -172h250l-28 -227h-250l-94 -776q-23 -168 -138 -267q-115 -98 -282 -96t-262 78l90 244q53 -47 112 -48q116 -2 133 140l91 725h-150l29 227h149l27 224q20 166 140 265t300 98t301 -81z" />
    <glyph glyph-name="Scommaaccent" unicode="&#x218;" horiz-adv-x="1318" 
d="M691 -84q73 0 121 -45t48 -119t-45 -139l-149 -217h-168l92 217q-68 47 -68 128t48 128t121 47zM506 1051q0 -68 78 -109t189.5 -70.5t223 -71.5t189.5 -136.5t78 -237.5q0 -207 -162 -322.5t-412 -115.5q-178 0 -352 61.5t-303 167.5l141 281q109 -94 256.5 -154.5
t248.5 -60.5q200 0 200 125q0 59 -56.5 99t-140.5 59.5t-182.5 52t-182 71.5t-140 124t-56.5 204q0 197 156.5 314.5t414.5 117.5q322 0 566 -160l-138 -284q-113 66 -241.5 107.5t-216.5 41.5q-158 0 -158 -104z" />
    <glyph glyph-name="scommaaccent" unicode="&#x219;" horiz-adv-x="1050" 
d="M536 -84q73 0 121 -45t48 -119t-46 -139l-149 -217h-168l92 217q-68 47 -67.5 128t48.5 128t121 47zM414 801q0 -41 59 -68.5t145.5 -50.5t171 -56.5t144 -107.5t59.5 -180q0 -166 -129 -259t-336 -93q-293 0 -495 155l112 226q195 -137 392 -138q121 0 120 76
q0 43 -58 72t-142 51.5t-168 56t-142.5 105.5t-58.5 180q0 166 125 258t346.5 92t431.5 -125l-121 -229q-205 111 -348 111q-108 0 -108 -76z" />
    <glyph glyph-name="Tcommaaccent" unicode="&#x21a;" horiz-adv-x="1251" 
d="M613 -84q73 0 121 -45t48 -119t-45 -139l-149 -217h-168l92 217q-68 47 -68 128t48 128t121 47zM1239 1436v-295h-432v-1141h-365v1141h-428v295h1225z" />
    <glyph glyph-name="tcommaaccent" unicode="&#x21b;" horiz-adv-x="890" 
d="M542 -84q73 0 121 -45t48 -119t-45 -139l-150 -217h-168l92 217q-68 47 -67.5 128t48.5 128t121 47zM545 389q0 -125 102 -121q49 0 137 37l70 -246q-129 -76 -294 -75.5t-266 91.5t-101 259v487h-154v232h154v307h352v-305h289v-234h-289v-432z" />
    <glyph glyph-name="dotlessj" unicode="&#x237;" horiz-adv-x="630" 
d="M145 1104h355v-1145q0 -174 -106 -273q-106 -98 -279 -96q-174 2 -299 70l82 244q68 -39 131 -39q118 -4 116 145v1094z" />
    <glyph glyph-name="circumflex" unicode="&#x2c6;" 
d="M731 1251h-254l-119 174l-118 -174h-254l231 310h283z" />
    <glyph glyph-name="caron" unicode="&#x2c7;" 
d="M-43 1561h276l125 -189l125 189h277l-248 -336h-307z" />
    <glyph glyph-name="firsttonechinese" unicode="&#x2c9;" 
d="M643 1294h-569v238h569v-238z" />
    <glyph glyph-name="breve" unicode="&#x2d8;" 
d="M358 1231q-146 0 -236 88q-91 88 -99 235h221q4 -53 36 -86q32 -32 78 -32t79 32q32 32 36 86h221q-8 -147 -99 -235t-237 -88z" />
    <glyph glyph-name="dotaccent" unicode="&#x2d9;" 
d="M358 1608q82 0 134 -52t53 -135q0 -82 -52 -135q-53 -53 -135 -53t-134 53t-52 135q0 83 52 135t134 52z" />
    <glyph glyph-name="ring" unicode="&#x2da;" 
d="M358 1528q-44 0 -76 -32t-32 -76t32 -74t76 -31q44 0 77 31q32 30 32 74t-32 76t-77 32zM358 1667q102 0 176 -72t72 -174q0 -102 -72 -174q-72 -71 -176 -71q-102 0 -175 72t-72 173q0 102 72 174q73 72 175 72z" />
    <glyph glyph-name="ogonek" unicode="&#x2db;" 
d="M338 -180q0 -57 45 -58q45 0 88 64l90 -105q-80 -137 -221 -137q-72 0 -126 41t-54 129q0 117 123 283h172q-117 -160 -117 -217z" />
    <glyph glyph-name="tilde" unicode="&#x2dc;" 
d="M209 1591q67 0 141 -48t94 -48q63 0 64 86h215q0 -317 -213 -317q-72 0 -144 48t-94 48q-61 0 -61 -88h-217q0 319 215 319z" />
    <glyph glyph-name="hungarumlaut" unicode="&#x2dd;" 
d="M778 1481l-184 -252h-258l174 350zM381 1481l-184 -252h-258l174 350z" />
    <glyph glyph-name="commaaccent" unicode="&#x326;" horiz-adv-x="0" 
d="M249 -84q73 0 121 -45t48 -119t-45 -139l-150 -217h-168l92 217q-68 47 -67.5 128t48.5 128t121 47z" />
    <glyph glyph-name="Delta" unicode="&#x394;" horiz-adv-x="1576" 
d="M1098 264l-314 807l-315 -807h629zM1587 0h-1597l618 1434h375z" />
    <glyph glyph-name="pi" unicode="&#x3c0;" horiz-adv-x="1492" 
d="M1212 856v-856h-292v856h-183l-92 -856h-291l90 856h-63q-61 0 -101 -36q-83 -74 7 -234l-244 -84q-76 141 -77 281q0 141 104 231t266 90h1132l2 -248h-258z" />
    <glyph glyph-name="Wgrave" unicode="&#x1e80;" horiz-adv-x="2213" 
d="M1755 0h-375l-266 991l-270 -991h-377l-469 1434h389l281 -1055l274 1055h356l281 -1055l276 1055h373zM1233 1559h-270l-267 231l320 113z" />
    <glyph glyph-name="wgrave" unicode="&#x1e81;" horiz-adv-x="1918" 
d="M1530 0h-350l-217 700l-218 -700h-352l-403 1104h360l228 -764l221 764h338l227 -764l223 764h346zM1141 1229h-271l-266 231l320 113z" />
    <glyph glyph-name="Wacute" unicode="&#x1e82;" horiz-adv-x="2213" 
d="M1755 0h-375l-266 991l-270 -991h-377l-469 1434h389l281 -1055l274 1055h356l281 -1055l276 1055h373zM1413 1790l-266 -231h-270l217 344z" />
    <glyph glyph-name="wacute" unicode="&#x1e83;" horiz-adv-x="1918" 
d="M1530 0h-350l-217 700l-218 -700h-352l-403 1104h360l228 -764l221 764h338l227 -764l223 764h346zM1319 1460l-266 -231h-271l217 344z" />
    <glyph glyph-name="Wdieresis" unicode="&#x1e84;" horiz-adv-x="2213" 
d="M1755 0h-375l-266 991l-270 -991h-377l-469 1434h389l281 -1055l274 1055h356l281 -1055l276 1055h373zM1251 1905q70 0 115 -45t45 -115t-45 -114t-115 -44q-71 0 -115 44t-44 114t44 115t115 45zM856 1905q70 0 115 -45t45 -115t-45 -114t-115 -44t-115 44t-45 114
t45 115t115 45z" />
    <glyph glyph-name="wdieresis" unicode="&#x1e85;" horiz-adv-x="1918" 
d="M1530 0h-350l-217 700l-218 -700h-352l-403 1104h360l228 -764l221 764h338l227 -764l223 764h346zM1159 1575q70 0 115 -45t45 -115q0 -69 -45 -113t-115 -44t-115 44t-45 114t45 114q45 45 115 45zM764 1575q70 0 115 -45t45 -115q0 -69 -45 -113t-115 -44t-115 44
t-45 114t45 114q45 45 115 45z" />
    <glyph glyph-name="Ygrave" unicode="&#x1ef2;" horiz-adv-x="1392" 
d="M883 0h-363v453l-530 981h364l346 -625l338 625h365l-520 -971v-463zM606 1559l-266 231l319 113l218 -344h-271z" />
    <glyph glyph-name="ygrave" unicode="&#x1ef3;" horiz-adv-x="1187" 
d="M299 -414q-176 0 -322 113l148 242q75 -59 157 -59t126 87l26 56l-459 1079h365l270 -733l240 733h352l-477 -1219q-123 -299 -426 -299zM774 1229h-270l-266 231l319 113z" />
    <glyph glyph-name="endash" unicode="&#x2013;" horiz-adv-x="833" 
d="M834 444h-834v224h834v-224z" />
    <glyph glyph-name="emdash" unicode="&#x2014;" horiz-adv-x="1327" 
d="M1327 444h-1327v224h1327v-224z" />
    <glyph glyph-name="quoteleft" unicode="&#x2018;" horiz-adv-x="493" 
d="M224 922q-73 0 -121 45t-48 117t45 141l150 215h168l-90 -217q66 -47 66 -127t-49 -127q-48 -47 -121 -47z" />
    <glyph glyph-name="quoteright" unicode="&#x2019;" horiz-adv-x="493" 
d="M248 1436q72 0 121 -45t49 -119t-45 -139l-150 -218h-168l92 218q-67 47 -67 128t48 128t120 47z" />
    <glyph glyph-name="quotesinglbase" unicode="&#x201a;" horiz-adv-x="493" 
d="M249 324q73 0 121 -45t48 -117t-45 -142l-150 -217h-168l92 220q-67 45 -67 126t48 128t121 47z" />
    <glyph glyph-name="quotedblleft" unicode="&#x201c;" horiz-adv-x="806" 
d="M603 922q-73 0 -121 45t-48 117t45 141l150 217h168l-92 -219q67 -45 67 -126t-48 -128t-121 -47zM224 922q-73 0 -121 45t-48 117t45 141l150 217h168l-92 -219q68 -45 68 -126t-49 -128q-48 -47 -121 -47z" />
    <glyph glyph-name="quotedblright" unicode="&#x201d;" horiz-adv-x="843" 
d="M628 1436q73 0 121 -45t48 -117t-45 -141l-150 -218h-168l92 220q-68 45 -68 126t49 128q48 47 121 47zM249 1436q73 0 121 -45t48 -117t-45 -141l-150 -218h-168l92 220q-67 45 -67 126t48 128t121 47z" />
    <glyph glyph-name="quotedblbase" unicode="&#x201e;" horiz-adv-x="872" 
d="M628 324q73 0 121 -45t48 -117t-45 -142l-150 -217h-168l92 220q-68 45 -68 126t49 128q48 47 121 47zM249 324q73 0 121 -45t48 -117t-45 -142l-150 -217h-168l92 220q-67 45 -67 126t48 128t121 47z" />
    <glyph glyph-name="dagger" unicode="&#x2020;" horiz-adv-x="1175" 
d="M756 1012h383v-287h-383v-1108h-348v1108h-371v287h371v420h348v-420z" />
    <glyph glyph-name="daggerdbl" unicode="&#x2021;" horiz-adv-x="1175" 
d="M756 725v-375h383v-287h-383v-446h-348v446h-371v287h371v375h-371v287h371v420h348v-420h383v-287h-383z" />
    <glyph glyph-name="bullet" unicode="&#x2022;" horiz-adv-x="669" 
d="M334 821q114 1 186 -71t72 -186t-73 -186t-185 -73q-112 0 -184 73q-72 72 -72 186t72 186t184 71z" />
    <glyph glyph-name="ellipsis" unicode="&#x2026;" horiz-adv-x="1392" 
d="M979 152q0 74 47 120t120 47q73 0 120 -47q47 -46 47 -120t-47 -121t-120 -47t-120 47t-47 121zM528 152q0 74 47 120t120 47q73 0 120 -47q47 -46 47 -120t-47 -121t-120 -47t-120 47t-47 121zM78 152q0 74 47 120t120 47q73 0 120 -47q47 -46 47 -120t-47 -121
t-120 -47t-120 47t-47 121z" />
    <glyph glyph-name="perthousand" unicode="&#x2030;" horiz-adv-x="3022" 
d="M2560 672q-82 0 -128 -65t-46 -179t46 -180t128 -66t128 66t46 180t-46 180q-46 64 -128 64zM1632 672q-82 0 -128 -65t-46 -179t46 -180t128 -66t128 66t46 180t-46 180q-46 64 -128 64zM2560 860q184 0 292 -117t108 -317t-108 -316q-108 -118 -292 -118t-293 118
t-109 318t110 316q108 116 292 116zM1632 860q184 0 292 -117t108 -317t-108 -316q-108 -118 -292 -118t-293 118t-109 318t110 316q108 116 292 116zM465 1251q-82 -1 -128 -65t-46 -178t46 -180q46 -64 128 -64t128 64t46 180q0 115 -46 179t-128 64zM365 0l1024 1436h331
l-1024 -1436h-331zM465 1440q184 0 292 -117q107 -117 107 -317t-108 -316q-108 -117 -291 -117q-184 0 -293 117t-109 317q0 201 109 317t293 116z" />
    <glyph glyph-name="guilsinglleft" unicode="&#x2039;" horiz-adv-x="575" 
d="M319 545l218 -377h-287l-246 377l246 377h287z" />
    <glyph glyph-name="guilsinglright" unicode="&#x203a;" horiz-adv-x="585" 
d="M291 545l-219 377h286l246 -377l-246 -377h-286z" />
    <glyph glyph-name="fraction" unicode="&#x2044;" horiz-adv-x="239" 
d="M-563 0l1024 1436h332l-1024 -1436h-332z" />
    <glyph glyph-name="Euro" unicode="&#x20ac;" horiz-adv-x="1601" 
d="M57 489v154h179q-7 86 0 150h-179v153h209q74 224 273 362t460 138q158 0 314 -66t262 -176l-209 -250q-72 86 -169 136t-199 51q-102 0 -193 -52q-90 -52 -141 -143h462v-153h-518q-4 -45 -4 -77t6 -73h516v-154h-456q53 -86 141 -136q89 -50 187 -50t194 45t174 123
l211 -225q-115 -119 -275 -191t-317 -71q-255 0 -451 139t-268 366h-209z" />
    <glyph glyph-name="literSign" unicode="&#x2113;" horiz-adv-x="968" 
d="M653 1268q-92 0 -135 -244l-53 -322q104 104 177 230q72 126 72 230q0 106 -61 106zM649 1452q129 0 195 -73t66 -193q-1 -228 -173 -430q-84 -98 -149 -161q-66 -62 -164 -144q-37 -229 108 -230q117 0 250 162l105 -125q-172 -270 -430 -270q-270 0 -293 311l-96 -61
l-50 145l170 119l80 491q41 229 147 344t234 115z" />
    <glyph glyph-name="trademark" unicode="&#x2122;" horiz-adv-x="1851" 
d="M1767 573h-229v502l-176 -418h-172l-176 418v-502h-230v863h281l211 -473l211 473h280v-863zM696 1229h-229v-656h-256v656h-227v207h712v-207z" />
    <glyph glyph-name="Omega" unicode="&#x2126;" horiz-adv-x="1753" 
d="M877 1452q319 0 528 -190t209 -482q0 -131 -66 -270t-168 -225h359v-285h-715v264q117 76 193 214t75 272q0 176 -118 290t-297 115q-180 0 -297 -115t-117 -290q0 -134 76 -272t192 -216v-262h-717v285h361q-102 86 -169 225t-67 270q0 291 209 482q210 190 529 190z
" />
    <glyph glyph-name="estimated" unicode="&#x212e;" horiz-adv-x="1656" 
d="M1266 682v338q0 23 -19 41q-174 174 -418 174t-417 -180q-18 -18 -19 -41v-332q0 -10 10 -10h852q11 0 11 10zM1516 639h-1113q-10 0 -10 -8v-336q0 -18 17 -39q170 -182 421 -182q129 0 245 54t196 148h100q-94 -112 -237 -176t-306 -63q-285 0 -485 180t-201 436
q0 255 201 437q202 182 486 182t485 -181t201 -438v-14z" />
    <glyph glyph-name="oneeighth" unicode="&#x215b;" horiz-adv-x="1832" 
d="M1407 360q-137 0 -137 -98t137 -98t137 98t-137 98zM1407 707q-117 1 -117 -87t117 -88t117 88t-117 87zM1406 864q148 0 238 -63q89 -63 89 -172t-107 -172q70 -29 112 -87t42 -128q0 -117 -100 -185q-100 -67 -272 -67q-171 0 -272 68t-102 180q0 72 45 131t121 88
q-119 68 -119 176t88 170q89 61 237 61zM182 580v663h-162v191h412v-854h-250zM137 0l1024 1436h332l-1024 -1436h-332z" />
    <glyph glyph-name="threeeighths" unicode="&#x215c;" horiz-adv-x="1953" 
d="M1528 360q-137 0 -137 -98t137 -98t137 98t-137 98zM1528 707q-117 1 -117 -87t117 -88t117 88t-117 87zM1528 864q148 0 236 -63t89 -172q0 -109 -106 -172q70 -29 112 -87t42 -128q-1 -117 -101 -185q-100 -67 -271 -67t-273 67q-101 68 -101 181q0 72 45 131t121 88
q-119 68 -119 176t88 170q90 61 238 61zM698 836q0 -111 -95 -189t-251 -78q-205 0 -342 107l101 182q98 -110 221 -110t123 98t-125 98h-148v125l193 188h-322v175h604v-138l-213 -202l41 -9q97 -16 155 -76t58 -171zM260 0l1024 1436h332l-1024 -1436h-332z" />
    <glyph glyph-name="fiveeighths" unicode="&#x215d;" horiz-adv-x="1984" 
d="M1559 360q-137 0 -138 -98t137 -98t138 98t-137 98zM1559 707q-117 1 -117 -87t117 -88t116 86q1 89 -116 89zM1233 633q0 107 88 169q89 62 237 62t237 -63t89 -172t-106 -172q70 -29 112 -87t41 -128q0 -117 -100 -185q-100 -67 -271 -67t-273 67q-101 68 -101 181
q0 72 45 131t121 88q-119 68 -119 176zM332 1249v-133q33 4 67 4q156 0 249 -68t93 -194q0 -125 -98 -207t-276 -82t-340 109l100 184q98 -112 222 -112t124 102q0 92 -123 92q-166 0 -246 -6v496h598v-185h-370zM291 0l1024 1436h332l-1024 -1436h-332z" />
    <glyph glyph-name="seveneighths" unicode="&#x215e;" horiz-adv-x="1927" 
d="M1501 360q-137 0 -137 -98t137 -98t137 98t-137 98zM1501 707q-117 1 -117 -87t117 -88t117 88t-117 87zM1500 864q148 0 238 -63q89 -63 89 -172t-107 -172q70 -29 112 -87t42 -128q0 -117 -100 -185q-100 -67 -272 -67t-272 68q-101 68 -102 180q0 72 46 131t120 88
q-118 68 -118 176q0 107 88 169t236 62zM274 1249v-121h-219v306h709v-162l-324 -692h-262l311 669h-215zM231 0l1024 1436h332l-1024 -1436h-332z" />
    <glyph glyph-name="partialdiff" unicode="&#x2202;" horiz-adv-x="1294" 
d="M603 676q-101 0 -154 -51t-53 -147t56 -149t157 -53t157 56t55 145q0 88 -58 144q-59 55 -160 55zM576 1450q282 0 458 -202t176 -538t-164 -532q-164 -195 -454 -194q-242 0 -388 134t-146 352t128 345t356 127t318 -178q10 195 -73 299t-257 104t-307 -112l-139 258
q210 137 492 137z" />
    <glyph glyph-name="product" unicode="&#x220f;" horiz-adv-x="1519" 
d="M1376 -397h-354v1638h-524v-1638h-355v1917h1233v-1917z" />
    <glyph glyph-name="summation" unicode="&#x2211;" horiz-adv-x="1261" 
d="M1229 1221h-731l485 -600l-487 -598h753v-306h-1194v254l541 650l-518 645v258h1151v-303z" />
    <glyph glyph-name="minus" unicode="&#x2212;" horiz-adv-x="1044" 
d="M977 557h-909v223h909v-223z" />
    <glyph glyph-name="divisionslash" unicode="&#x2215;" horiz-adv-x="722" 
d="M223 -227h-297l662 1888h297z" />
    <glyph glyph-name="bulletoperator" unicode="&#x2219;" horiz-adv-x="669" 
d="M334 821q114 1 186 -71t72 -186t-73 -186t-185 -73q-112 0 -184 73q-72 72 -72 186t72 186t184 71z" />
    <glyph glyph-name="radical" unicode="&#x221a;" horiz-adv-x="1449" 
d="M4 559v277h500l229 -805l404 1497h338l-555 -1850h-377l-281 881h-258z" />
    <glyph glyph-name="infinity" unicode="&#x221e;" horiz-adv-x="1748" 
d="M1272 414q86 0 137 56t51 143t-51 143t-138 57q-87 0 -154 -52t-128 -151q61 -94 129 -145t154 -51zM477 412q88 0 155 53t128 151q-61 94 -129 146t-154 51q-86 0 -137 -57q-51 -56 -51 -144t50 -144t138 -56zM1280 1051q182 0 301 -124q119 -123 119 -313t-119 -315
t-301 -125q-141 0 -233 67t-170 185q-76 -120 -170 -186t-257 -66t-282 125t-119 313t119 314t299 125q141 0 233 -67t170 -185q78 119 172 185t238 67z" />
    <glyph glyph-name="integral" unicode="&#x222b;" horiz-adv-x="798" 
d="M512 1288q0 -108 26 -533t25 -536q0 -272 -88 -387t-297 -115q-133 0 -219 54l43 225q80 -37 133 -37q90 0 130 54q40 53 40 173q1 120 -27 540t-28 517q0 270 88 385t295 115q83 0 192 -45l-37 -225q-59 23 -112 22q-90 0 -127 -50q-37 -49 -37 -157z" />
    <glyph glyph-name="approxequal" unicode="&#x2248;" horiz-adv-x="1044" 
d="M346 610q78 0 167 -51t114 -51q68 0 67 94h236q0 -348 -232 -348q-78 0 -167 51t-113 51q-66 0 -66 -94h-237q0 348 231 348zM346 1081q78 0 167 -51t114 -51q68 0 67 94h236q0 -348 -232 -348q-78 0 -167 51t-113 51q-66 0 -66 -94h-237q0 348 231 348z" />
    <glyph glyph-name="notequal" unicode="&#x2260;" horiz-adv-x="1044" 
d="M977 561v-223h-436l-92 -293h-267l92 293h-206v223h278l68 217h-346v223h417l88 281h267l-88 -281h225v-223h-297l-68 -217h365z" />
    <glyph glyph-name="lessequal" unicode="&#x2264;" horiz-adv-x="1044" 
d="M977 4h-909v225h909v-225zM977 1079l-680 -264l680 -262v-240l-909 365v274l909 367v-240z" />
    <glyph glyph-name="greaterequal" unicode="&#x2265;" horiz-adv-x="1044" 
d="M977 4h-909v225h909v-225zM66 567l682 264l-682 263v239l911 -366v-273l-911 -366v239z" />
    <glyph glyph-name="lozenge" unicode="&#x25ca;" horiz-adv-x="1040" 
d="M307 676l211 -318l215 318l-213 315zM989 676l-471 -705l-467 705l469 698z" />
    <glyph glyph-name="zero.dnom" horiz-adv-x="927" 
d="M465 672q-82 0 -128 -65t-46 -179t46 -180t128 -66t128 66t46 180t-46 180q-46 64 -128 64zM465 860q184 0 292 -117q107 -117 107 -317t-108 -316q-108 -118 -291 -118q-184 0 -293 118t-109 318t109 316t293 116z" />
    <glyph glyph-name="one.dnom" horiz-adv-x="561" 
d="M182 0v664h-162v190h412v-854h-250z" />
    <glyph glyph-name="two.dnom" horiz-adv-x="796" 
d="M412 864q137 0 223 -62t86 -174t-170 -276l-168 -168h360v-184h-677v154l317 315q78 86 78 135q0 66 -97 66t-233 -109l-94 172q187 131 375 131z" />
    <glyph glyph-name="three.dnom" horiz-adv-x="747" 
d="M698 254q0 -112 -94 -188t-252 -76q-209 0 -342 106l101 183q98 -111 221 -111t123 100q0 94 -125 94h-148v127l193 187h-322v174h604v-135l-213 -205l41 -6q97 -16 155 -78t58 -172z" />
    <glyph glyph-name="four.dnom" horiz-adv-x="847" 
d="M471 350v182h231v-182h119v-172h-119v-178h-231v178h-424v162l275 514h239l-260 -504h170z" />
    <glyph glyph-name="five.dnom" horiz-adv-x="792" 
d="M332 670v-135q25 6 67 6q156 0 249 -69q93 -70 93 -194t-98 -206q-97 -82 -279 -82t-337 108l100 185q98 -115 222 -115t124 104q0 92 -123 93q-166 0 -246 -7v496h598v-184h-370z" />
    <glyph glyph-name="six.dnom" horiz-adv-x="839" 
d="M449 389q-57 0 -89 -28t-32 -76q0 -103 118 -103t117 107q1 100 -114 100zM472 864q180 0 308 -71l-96 -170q-74 55 -184 55q-203 0 -197 -205q61 90 199 90t215 -76q78 -77 78 -207q1 -130 -93 -210t-262 -80t-272 113q-104 114 -104 315q0 202 114 324t294 122z" />
    <glyph glyph-name="seven.dnom" horiz-adv-x="794" 
d="M274 670v-123h-219v307h709v-164l-324 -690h-262l311 670h-215z" />
    <glyph glyph-name="eight.dnom" horiz-adv-x="851" 
d="M426 360q-137 0 -137 -98t137 -98t137 98t-137 98zM426 707q-117 1 -117 -87t117 -88t117 88t-117 87zM426 864q148 0 237 -63t89 -172t-107 -172q70 -29 112 -87t42 -128q-1 -117 -101 -185q-100 -67 -271 -67t-272 68t-102 180q0 72 45 131t121 88q-119 68 -119 176
t88 170q90 61 238 61z" />
    <glyph glyph-name="nine.dnom" horiz-adv-x="843" 
d="M397 465q117 0 117 104q0 47 -30 75t-87 28q-117 0 -116 -107q-1 -100 116 -100zM778 434q0 -200 -114 -322t-294 -122t-307 71l95 168q78 -53 186 -53q203 0 197 205q-63 -92 -199 -92t-214 77q-79 78 -79 208t92 210t260 80t273 -114q104 -115 104 -316z" />
    <glyph glyph-name="zero.numr" horiz-adv-x="927" 
d="M465 1251q-82 -1 -128 -65t-46 -178t46 -180q46 -64 128 -64t128 64t46 180q0 115 -46 179t-128 64zM465 1440q184 0 292 -117q107 -117 107 -317t-108 -316q-108 -117 -291 -117q-184 0 -293 117t-109 317q0 201 109 317t293 116z" />
    <glyph glyph-name="one.numr" horiz-adv-x="561" 
d="M182 580v663h-162v191h412v-854h-250z" />
    <glyph glyph-name="two.numr" horiz-adv-x="796" 
d="M412 1444q135 0 222 -62t87 -163q0 -123 -170 -287l-168 -166h360v-186h-677v153l317 318q78 82 78 133q1 66 -99 66t-231 -109l-94 172q187 131 375 131z" />
    <glyph glyph-name="three.numr" horiz-adv-x="747" 
d="M698 836q0 -111 -95 -189t-251 -78q-205 0 -342 107l101 182q98 -110 221 -110t123 98t-125 98h-148v125l193 188h-322v175h604v-138l-213 -202l41 -9q97 -16 155 -76t58 -171z" />
    <glyph glyph-name="four.numr" horiz-adv-x="847" 
d="M471 932v182h231v-182h119v-172h-119v-180h-231v180h-424v160l275 514h239l-260 -502h170z" />
    <glyph glyph-name="five.numr" horiz-adv-x="792" 
d="M332 1249v-133q33 4 67 4q156 0 249 -68t93 -194q0 -125 -98 -207t-276 -82t-340 109l100 184q98 -112 222 -112t124 102q0 92 -123 92q-166 0 -246 -6v496h598v-185h-370z" />
    <glyph glyph-name="six.numr" horiz-adv-x="839" 
d="M449 969q-57 0 -89 -28t-32 -75q0 -48 30 -76t88 -28q117 0 117 106q1 101 -114 101zM472 1444q180 0 308 -72l-96 -168q-74 55 -184 56q-203 0 -197 -207q61 90 199 90t215 -76q78 -76 78 -206q1 -130 -93 -211t-260 -81t-273 115q-105 114 -105 314t114 323t294 123z
" />
    <glyph glyph-name="seven.numr" horiz-adv-x="794" 
d="M274 1249v-121h-219v306h709v-162l-324 -692h-262l311 669h-215z" />
    <glyph glyph-name="eight.numr" horiz-adv-x="851" 
d="M426 942q-137 0 -137 -99t137 -99t137 98q0 100 -137 100zM426 1286q-117 0 -117 -86t117 -86t117 86t-117 86zM100 1212q0 108 88 170t238 62t238 -64t88 -172q0 -109 -107 -172q72 -29 113 -86t41 -127q1 -117 -101 -185t-272 -69q-170 0 -271 68t-102 180q0 72 45 131
t121 88q-119 68 -119 176z" />
    <glyph glyph-name="nine.numr" horiz-adv-x="843" 
d="M397 1044q117 0 117 105q0 47 -30 76t-87 28q-117 0 -116 -106q-1 -103 116 -103zM401 1444q169 0 273 -115t104 -315t-115 -322q-115 -123 -295 -123t-305 74l95 166q78 -53 181 -53q206 0 202 205q-66 -93 -201 -93t-213 77t-78 208t92 211t260 80z" />
    </font>
</defs>
</svg>
